<?xml version="1.0" encoding="UTF-8"?>
<svg id="Layer_1" data-name="Layer 1" xmlns="http://www.w3.org/2000/svg" version="1.1" viewBox="0 0 64 64">
  <defs>
    <style>
      .cls-1 {
        fill: #ff69b3;
      }

      .cls-1, .cls-2, .cls-3, .cls-4, .cls-5 {
        stroke-width: 0px;
      }

      .cls-2 {
        fill: #ffab23;
      }

      .cls-3 {
        fill: #ffabb9;
      }

      .cls-4 {
        fill: #54ff67;
      }

      .cls-5 {
        fill: #be28c6;
      }
    </style>
  </defs>
  <path class="cls-1" d="M31.9,1C14.7,1,.8,14.9.8,32s13.9,31,31,31,31-13.9,31-31S49,1,31.9,1ZM37.7,31l2.8-1.1c.4-.1.7-.2,1.1-.2.7,0,1.4.2,2,.7.2.2.4.4.6.6l.5-.4.5-.4h.2c.5-.5.7-1.2.5-1.8-.5-1.2-.8-3,1.2-4,0,0,2.4-1.3,3.6,1.6,0,0,1.7-.2,2.4,1.3.1.3.2.7.2,1h0c0,.7,0,2.2-1.2,2.7-.2.7.6,2.1-.7,3.2-.3.2-.6.3-.9.4-.7.2-1.9.3-2.8-.9-.2-.3-.6-.5-1-.5-.2,0-.3,0-.5,0h-.2c0,0-.6.3-.6.3.2.9.2,2-.1,3.3h-21c.5-.7,1.4-1.5,3-2.1l1.8-.7.5-.2h0s.6-.3.6-.3l1.4-.6c.1.2.5.7.6,1.4,0,.1,0,.2.1.3.1.2.4.4.6.4s0,0,0,0c0,0,.1,0,.2,0,.3-.1.5-.5.5-.9,0-.8-.4-1.4-.6-1.8l2.7-1.1c.3.4.9,1.4,1.1,2.6,0,.4.4.6.7.6s0,0,0,0c0,0,0,0,0,0,.4,0,.7-.5.6-.9-.2-1-.5-1.8-.9-2.4,0-.2-.2-.3-.3-.5h.2ZM21.4,11.9c2.4-1.6,4.4,0,5.4,1.1.6.6,1.3,1,2,1.2,2.8.7,3.9,3.7,4.3,5.3.3,1.3.8,2.6,1.5,3.6.1.2.2.4.2.4,1.4,1.7,2.2,3.9,2.7,6.1l-7.5,3c-.9-1.8-2-3.5-3.6-4.6,0,0,0,0-.2-.1-.6-.5-1.1-1.3-1.6-2.1-.7-1.3-2.1-3.4-4.4-3.7,0-.2.1-.3.1-.3,0,0,0-.1,0-.2.4-1.1.4-2.4,0-3.5-1.5-4.5.9-6.2.9-6.2ZM13.5,23.6c.7-1,1.5-1.3,2.2-1.3s1.4.3,1.9.7c.5.3.9.4,1.4.4s.2,0,.3,0c0,0,.2,0,.3,0s.2,0,.3,0c1.8.2,3.1,2,3.6,3.1.5,1,1.1,1.8,1.9,2.5.2.1.2.2.2.2,1.4.9,2.4,2.5,3.2,4l-.9.4-.8.3c-2.4.8-3.6,2.2-4.1,3.3h-5.4c-.3-.6-.8-1.1-1.3-1.4-1.8-1.3-1.4-4-1.4-4,0,0,0-.1,0-.2,0-1-.2-2-.7-2.8-2.1-3.2-.7-5.1-.7-5.1ZM51.9,43.1h-7c-.4,0-.8.4-.8.8s.3.8.8.8h3.1l-2.6,2.2c-1.1,1-2.6,1.5-4,1.5h-16.7c-1.5,0-2.9-.5-4-1.5l-2.6-2.2h3.1c.4,0,.8-.4.8-.8s-.3-.8-.8-.8h-7c-.8-.3-1.4-1.1-1.4-2.1s.9-2.2,2.1-2.2h36.3c1.2,0,2.1,1,2.1,2.2s-.6,1.8-1.4,2.1Z"/>
  <path class="cls-3" d="M24.8,21.2s1.3-.4,2.2.6c1,1.7,2.1,4,2.8,6.7,0,.4.4.6.7.6s.1,0,.2,0c.4-.1.6-.6.5-1-.3-1-.6-1.9-.9-2.7,0,0,0,0,0,0,0-1.5.6-2.4.8-2.6,0-.1.2-.2.2-.4.1-.4-.1-.9-.5-1-.3,0-.7,0-.8.3,0,0,0,0,0,0-.3.4-.6.8-.7,1.2-1.8-3.7-3.7-5.8-3.8-6-.3-.3-.8-.3-1.1,0-.3.3-.3.8,0,1.1,0,0,.5.6,1.2,1.5-.7,0-1.2.1-1.2.1h0c-.4.1-.6.6-.5,1,.1.4.5.7.9.6Z"/>
  <path class="cls-3" d="M16.7,29.6c.1.2.4.4.6.4s.3,0,.4-.1c0,0,1-.6,1.9-.1,0,0,0,0,0,0,.8,1,1.7,2.3,2.3,3.7.1.3.4.5.7.5s.2,0,.3,0c.4-.2.6-.7.4-1.1-.2-.6-.5-1.1-.8-1.6-.2-.7,0-1.4.2-1.9,0-.2.2-.4.2-.4.2-.4.1-.9-.2-1.1-.3-.2-.7-.2-1,.1,0,0,0,0,0,0,0,0-.3.5-.5,1.1-1.5-2-3.1-3.2-3.2-3.2-.3-.3-.8-.2-1.1.2-.2.4-.2.9.2,1.1,0,0,.4.3.9.8-.7.2-1.1.5-1.1.5h0c-.4.2-.5.7-.2,1.1Z"/>
  <path class="cls-4" d="M20.4,21.6c0,0,0,.1,0,.2,0,0,0,.1-.1.3,2.3.3,3.7,2.4,4.4,3.7.5.9,1,1.6,1.6,2.1,0,0,.1.1.2.1,1.6,1.1,2.8,2.9,3.6,4.6l7.5-3c-.4-2.2-1.2-4.4-2.7-6.1,0,0,0-.1-.2-.4-.7-1.1-1.2-2.3-1.5-3.6-.4-1.6-1.4-4.6-4.3-5.3-.8-.2-1.5-.6-2-1.2-1-1.2-3-2.7-5.4-1.1,0,0-2.4,1.6-.9,6.2.4,1.1.4,2.3,0,3.5ZM24.4,19.7h0s.5-.1,1.2-.1c-.7-1-1.2-1.5-1.2-1.5-.3-.3-.3-.8,0-1.1.3-.3.8-.3,1.1,0,.1.1,2,2.3,3.8,6,.2-.4.4-.8.7-1.2,0,0,0,0,0,0,.2-.3.5-.4.8-.3.4.1.6.6.5,1,0,.2-.1.3-.2.4-.2.3-.9,1.1-.8,2.6,0,0,0,0,0,0,.3.8.6,1.7.9,2.7.1.4-.1.9-.5,1,0,0-.1,0-.2,0-.3,0-.6-.2-.7-.6-.7-2.7-1.8-5-2.8-6.7-.9-.9-2.2-.6-2.2-.6-.4.1-.8-.1-.9-.6-.1-.4.1-.9.5-1Z"/>
  <path class="cls-4" d="M14.9,31.5c0,0,0,.1,0,.2,0,0-.4,2.7,1.4,4,.5.4,1,.9,1.3,1.4h5.4c.5-1.1,1.6-2.5,4.1-3.3l.8-.3.9-.4c-.8-1.6-1.8-3.1-3.2-4,0,0,0,0-.2-.2-.7-.7-1.4-1.5-1.9-2.5-.6-1.1-1.8-2.9-3.6-3.1,0,0-.2,0-.3,0s-.2,0-.3,0c0,0-.2,0-.3,0-.5,0-1-.1-1.4-.4-.5-.3-1.2-.7-1.9-.7s-1.5.3-2.2,1.3c0,0-1.4,2,.7,5.1.5.8.8,1.8.7,2.8ZM18,28.1c-.5-.5-.9-.8-.9-.8-.3-.3-.4-.8-.2-1.1.2-.4.7-.5,1.1-.2,0,0,1.7,1.3,3.2,3.2.2-.7.5-1.1.5-1.1,0,0,0,0,0,0,.2-.3.7-.4,1-.1.3.2.4.7.2,1.1,0,0,0,.2-.2.4-.2.4-.4,1.2-.2,1.9.3.5.6,1.1.8,1.6.2.4,0,.9-.4,1.1,0,0-.2,0-.3,0-.3,0-.6-.2-.7-.5-.6-1.4-1.4-2.7-2.3-3.7,0,0,0,0,0,0-.9-.5-1.9.1-1.9.1-.1,0-.3.1-.4.1-.2,0-.5-.1-.6-.4-.2-.4-.1-.9.2-1.1h0s.5-.3,1.1-.5Z"/>
  <path class="cls-5" d="M51.2,38.8H15c-1.2,0-2.1,1-2.1,2.2s.6,1.8,1.4,2.1h7c.4,0,.8.4.8.8s-.3.8-.8.8h-3.1l2.6,2.2c1.1,1,2.6,1.5,4,1.5h16.7c1.5,0,2.9-.5,4-1.5l2.6-2.2h-3.1c-.4,0-.8-.4-.8-.8s.3-.8.8-.8h7c.8-.3,1.4-1.1,1.4-2.1s-.9-2.2-2.1-2.2Z"/>
  <path class="cls-2" d="M38.7,34c0,.4-.2.9-.6.9,0,0,0,0,0,0,0,0,0,0,0,0-.4,0-.7-.3-.7-.6-.2-1.2-.9-2.2-1.1-2.6l-2.7,1.1c.2.4.5,1.1.6,1.8,0,.4-.2.7-.5.9,0,0-.1,0-.2,0,0,0,0,0,0,0-.3,0-.5-.1-.6-.4,0,0-.1-.2-.1-.3,0-.7-.4-1.2-.6-1.4l-1.4.6-.6.2h0s-.5.2-.5.2l-1.8.7c-1.6.5-2.5,1.3-3,2.1h21c.3-1.3.3-2.4.1-3.3l.6-.2h.2c.1-.1.3-.2.5-.1.4,0,.8.2,1,.5.9,1.1,2.1,1.1,2.8.9.3,0,.6-.2.9-.4,1.3-1,.6-2.5.7-3.2,1.1-.5,1.2-2,1.2-2.7h0c0-.3,0-.7-.2-1-.7-1.5-2.4-1.3-2.4-1.3-1.3-2.9-3.6-1.6-3.6-1.6-2,.9-1.6,2.8-1.2,4,.2.6,0,1.3-.5,1.7h-.2c0,.1-.5.5-.5.5l-.5.4c-.2-.2-.4-.4-.6-.6-.6-.5-1.3-.7-2-.7-.4,0-.8,0-1.1.2l-2.8,1.1h-.2c0,.2.2.4.3.6.3.6.7,1.5.9,2.4Z"/>
</svg>