<?xml version="1.0" encoding="UTF-8"?>
<svg id="Layer_1" data-name="Layer 1" xmlns="http://www.w3.org/2000/svg" version="1.1" viewBox="0 0 66 66">
  <defs>
    <style>
      .cls-1 {
        fill: #ff69b4;
        stroke: #3117ff;
        stroke-miterlimit: 10;
      }

      .cls-2 {
        fill: #00abdb;
        stroke-width: 0px;
      }
    </style>
  </defs>
  <g id="Layer_1-2" data-name="Layer 1">
    <circle class="cls-1" cx="32.9" cy="33.1" r="32"/>
  </g>
  <g id="Layer_2" data-name="Layer 2">
    <g>
      <path class="cls-2" d="M42.2,49.5h-19.5c-4.4,0-8-3.6-8-8v-19.5c0-4.4,3.6-8,8-8h19.5c4.4,0,8,3.6,8,8v19.5c0,4.4-3.6,8-8,8ZM22.6,16.8c-2.9,0-5.2,2.3-5.2,5.2v19.5c0,2.9,2.3,5.2,5.2,5.2h19.5c2.9,0,5.2-2.3,5.2-5.2v-19.5c0-2.9-2.3-5.2-5.2-5.2,0,0-19.5,0-19.5,0Z"/>
      <path class="cls-2" d="M35.7,30c-.3,0-.7-.1-1-.4-.5-.5-.5-1.4,0-2l5.1-5.1h-1.6c-.8,0-1.4-.6-1.4-1.4s.6-1.4,1.4-1.4h4.9c.3,0,.7.1.9.3h0c0,0,.1.1.2.2.2.2.3.5.3.7h0v5c0,.8-.6,1.4-1.4,1.4s-1.4-.6-1.4-1.4v-1.6l-5.1,5.1c-.3.3-.6.4-1,.4Z"/>
      <path class="cls-2" d="M26.7,43.8h-4.9c-.3,0-.7-.1-.9-.3h0c0,0-.1-.1-.2-.2-.2-.2-.3-.5-.3-.7h0v-5c0-.8.6-1.4,1.4-1.4s1.4.6,1.4,1.4v1.6l5.1-5.1c.5-.5,1.4-.5,2,0s.5,1.4,0,2l-5.1,5.1h1.6c.8,0,1.4.6,1.4,1.4s-.6,1.4-1.4,1.4h0Z"/>
    </g>
  </g>
</svg>