<?xml version="1.0" encoding="UTF-8"?>
<svg xmlns="http://www.w3.org/2000/svg" version="1.1" viewBox="0 0 67 68">
  <defs>
    <style>
      .cls-1 {
        fill: #3d9908;
      }

      .cls-1, .cls-2, .cls-3 {
        stroke-width: 0px;
      }

      .cls-2 {
        fill: #0d650f;
      }

      .cls-3 {
        fill: #298f22;
      }

      .cls-4 {
        fill: #ff69b3;
        stroke: #3117ff;
        stroke-miterlimit: 10;
      }
    </style>
  </defs>
  <g id="Circle">
    <circle class="cls-4" cx="33.5" cy="34" r="32"/>
  </g>
  <g id="Layer_1" data-name="Layer 1">
    <path class="cls-3" d="M40.5,42s.6-9.2,10.4-10.6c0,0-9.8-2.7-13.3,9.8l-1.6,7.1,4.7-5.7-.2-.6Z"/>
    <path class="cls-3" d="M42,51.3h-3.7s.7-10.3,8.8-14.1c0,0-4.9,5-5.1,14.1Z"/>
    <path class="cls-2" d="M48.7,22.7s-10.6-.4-11.6,16.3l-3.9,4.2s1.9-23,15.5-20.5Z"/>
    <path class="cls-1" d="M36.3,9s-7.1,16-3.5,32.8l3.1-.5s-2.1-6.6.3-32.3"/>
    <path class="cls-2" d="M47.1,33.7s-11,.3-10.9,13.8l-1,3.3-1.9-6.7s.9-10.9,13.8-10.4Z"/>
    <path class="cls-1" d="M33,44.5s-7.2-12.8-6-23.9c0,0-3.7,9.2,2,23.9h3.9Z"/>
    <path class="cls-2" d="M33.4,50.9h-4.3s-19.5-27.2-2.5-38.1c0,0-9.4,8.8,1.2,24,0,0,5.7,8.1,5.6,14.1Z"/>
    <path class="cls-3" d="M35.3,50.9h-2.5s-7.9-27.7,11.9-28.7c0,0-16.4,1.3-9.4,28.7"/>
    <path class="cls-1" d="M26.4,50.9h2.3s-12-19.1,2-21.1c0,0-8.8-1.1-10.6,6.8-1.8,7.9,6.3,14.3,6.3,14.3Z"/>
    <path class="cls-3" d="M27.1,50.9h4.8s-11.8-14.5,11.2-13.4c0,0-10.3-3.6-16.2,1.1,0,0-5,2.8.2,12.3"/>
    <path class="cls-2" d="M38.3,51h-3.4c0,0,1.3-14.5,12.2-7.4,0,0-9.7-3.6-8.8,7.4Z"/>
  </g>
</svg>