<?xml version="1.0" encoding="UTF-8"?>
<svg id="Layer_2" data-name="Layer 2" xmlns="http://www.w3.org/2000/svg" version="1.1" viewBox="0 0 64 64">
  <defs>
    <style>
      .cls-1 {
        fill: #ff69b3;
      }

      .cls-1, .cls-2, .cls-3, .cls-4 {
        stroke-width: 0px;
      }

      .cls-2 {
        fill: #f85eff;
      }

      .cls-3 {
        fill: #3b99ff;
      }

      .cls-4 {
        fill: #fff;
      }
    </style>
  </defs>
  <path class="cls-2" d="M32.7,20.9l-6,9.6c-.7,1.1-1,2.4-1,3.7,0,1.9.8,3.8,2.2,5.2,1.4,1.3,3.3,2,5.3,1.9,3.5-.2,6.3-3.1,6.5-6.6,0-1.5-.3-2.9-1-4.1l-6-9.6Z"/>
  <path class="cls-1" d="M32.1,1C14.9,1,1,14.9,1,32.1s13.9,31.1,31.1,31.1,31.1-13.9,31.1-31.1S49.3,1,32.1,1ZM51.2,35.9l-18.3,18.3-18.3-18.3c-5.8-5.8-5.8-15.1,0-20.9,2.8-2.8,6.5-4.3,10.5-4.3s5.5.8,7.9,2.3c2.4-1.5,5.1-2.3,7.9-2.3s7.7,1.5,10.5,4.3c5.8,5.8,5.8,15.1,0,20.9Z"/>
  <path class="cls-3" d="M50.6,15.7c-2.6-2.6-6.1-4-9.8-4s-5.4.8-7.7,2.3l-.4.3-.4-.3c-2.3-1.5-4.9-2.3-7.7-2.3s-7.1,1.4-9.8,4c-5.4,5.4-5.4,14.1,0,19.5l17.9,17.9,17.9-17.9c5.4-5.4,5.4-14.1,0-19.5ZM15.6,19.5c-.5.7-.8,1.5-1.1,2.2-.1.3-.4.5-.7.5s-.2,0-.2,0c-.4-.1-.6-.5-.4-.9.3-.9.8-1.7,1.3-2.5.2-.3.6-.4,1-.2.3.2.4.6.2,1ZM23,14.8c-2.3.3-4.4,1.4-6,3l-1-1c1.9-1.9,4.2-3,6.8-3.4.4,0,.7.2.8.6,0,.4-.2.7-.6.8ZM33.3,42.6c-.2,0-.4,0-.6,0-2.2,0-4.2-.8-5.8-2.3-1.7-1.6-2.7-3.8-2.7-6.2s.4-3.1,1.2-4.4l6.1-9.7c.2-.4.7-.6,1.1-.6s.9.2,1.1.6l6.1,9.7c.9,1.5,1.3,3.2,1.2,5-.3,4.2-3.6,7.6-7.8,7.9Z"/>
  <path class="cls-4" d="M51.6,14.7c-2.9-2.9-6.7-4.5-10.7-4.5s-5.7.8-8.1,2.3c-2.4-1.5-5.2-2.3-8.1-2.3s-7.9,1.6-10.7,4.5c-5.9,5.9-5.9,15.6,0,21.5l18.8,18.8,18.8-18.8c5.9-5.9,5.9-15.6,0-21.5ZM50.6,35.2l-17.9,17.9-17.9-17.9c-5.4-5.4-5.4-14.1,0-19.5,2.6-2.6,6.1-4,9.8-4s5.4.8,7.7,2.3l.4.3.4-.3c2.3-1.5,4.9-2.3,7.7-2.3s7.1,1.4,9.8,4c5.4,5.4,5.4,14.1,0,19.5Z"/>
  <path class="cls-4" d="M15.4,18.5c-.3-.2-.8-.1-1,.2-.5.8-1,1.6-1.3,2.5-.1.4,0,.8.4.9,0,0,.2,0,.2,0,.3,0,.6-.2.7-.5.3-.8.7-1.5,1.1-2.2.2-.3.1-.8-.2-1Z"/>
  <path class="cls-4" d="M22.8,13.4c-2.6.4-4.9,1.6-6.8,3.4l1,1c1.6-1.6,3.7-2.7,6-3,.4,0,.6-.4.6-.8,0-.4-.4-.6-.8-.6Z"/>
  <path class="cls-4" d="M33.8,20.1c-.2-.4-.7-.6-1.1-.6s-.9.2-1.1.6l-6.1,9.7c-.8,1.3-1.2,2.9-1.2,4.4,0,2.3,1,4.6,2.7,6.2,1.6,1.5,3.6,2.3,5.8,2.3s.4,0,.6,0c4.2-.3,7.6-3.7,7.8-7.9.1-1.8-.3-3.5-1.2-5l-6.1-9.7ZM33.2,41.2c-2,.1-3.9-.5-5.3-1.9-1.4-1.3-2.2-3.2-2.2-5.2s.4-2.6,1-3.7l6-9.6,6,9.6c.8,1.2,1.1,2.7,1,4.1-.2,3.5-3,6.3-6.5,6.6Z"/>
</svg>