<?xml version="1.0" encoding="UTF-8"?>
<svg id="Layer_2" data-name="Layer 2" xmlns="http://www.w3.org/2000/svg" version="1.1" viewBox="0 0 64 64">
  <defs>
    <style>
      .cls-1 {
        fill: #ff69b3;
      }

      .cls-1, .cls-2 {
        stroke-width: 0px;
      }

      .cls-2 {
        fill: #18eeff;
      }
    </style>
  </defs>
  <path class="cls-1" d="M32.3,1C15,1,1,15,1,32.3s14,31.3,31.3,31.3,31.3-14,31.3-31.3S49.5,1,32.3,1ZM38.1,12.3c2-.5,3.4.9,4,1.9.9,1.4,1.1,3,1,4.8,0,1.7-.7,3.3-1.4,4.5-2.1,3-5.4,3.9-7.5.8-2.5-3.7-.7-10.9,3.9-12ZM24,12.5c1.7-.6,3.4.6,4.2,1.4,3.9,4,3.2,11-.6,12.2-5.9,1.8-10.1-11.4-3.7-13.6ZM16.3,35.3c-.9-.7-1.9-1.9-2.5-3.1-.7-1.4-1-3.1-.7-4.9.2-1.7,1-2.6,2.4-3.1,5.6-2.1,10.7,9.8,5,12-1.5.6-3.2-.3-4.2-1ZM37.2,49.8c-2.6,0-3.9-1.3-5.2-3.9-1.3,2.6-2.6,3.9-5.2,3.9s-5.2-2.3-5.2-5.2c0-4.6,4-9.1,8.5-13.7.5-.5,1.2-.8,1.9-.8s1.4.3,1.9.8c4.5,4.6,8.5,9.1,8.5,13.7s-2.3,5.2-5.2,5.2ZM45.7,35.8c-6.3,1.2-5.9-10.8.9-12.4,6.3-1.5,5.9,11.1-.9,12.4Z"/>
  <path class="cls-2" d="M32,30.1c-.7,0-1.4.3-1.9.8-4.5,4.6-8.5,9.1-8.5,13.7s2.3,5.2,5.2,5.2,3.9-1.3,5.2-3.9c1.3,2.6,2.6,3.9,5.2,3.9s5.2-2.3,5.2-5.2c0-4.6-4-9.1-8.5-13.7-.5-.5-1.2-.8-1.9-.8Z"/>
  <path class="cls-2" d="M41.7,23.4c.8-1.1,1.3-2.8,1.4-4.5.1-1.9-.1-3.4-1-4.8-.6-1-2.1-2.3-4-1.9-4.6,1.1-6.3,8.3-3.9,12,2.1,3.1,5.4,2.2,7.5-.8Z"/>
  <path class="cls-2" d="M27.6,26c3.8-1.1,4.5-8.2.6-12.2-.8-.8-2.5-2-4.2-1.4-6.5,2.1-2.2,15.4,3.7,13.6Z"/>
  <path class="cls-2" d="M46.6,23.3c-6.8,1.6-7.2,13.6-.9,12.4,6.8-1.3,7.2-14,.9-12.4Z"/>
  <path class="cls-2" d="M15.5,24.2c-1.4.5-2.2,1.4-2.4,3.1-.3,1.8,0,3.4.7,4.9.6,1.2,1.6,2.4,2.5,3.1.9.7,2.7,1.5,4.2,1,5.8-2.2.6-14.1-5-12Z"/>
</svg>