<?xml version="1.0" encoding="UTF-8"?>
<svg xmlns="http://www.w3.org/2000/svg" version="1.1" viewBox="0 0 66 66">
  <defs>
    <style>
      .cls-1 {
        fill: #f07888;
        stroke: #3117ff;
        stroke-miterlimit: 10;
      }

      .cls-2 {
        fill: #fff;
        font-family: AgencyFB-Reg, 'Agency FB';
        font-size: 6px;
      }

      .cls-3 {
        fill: #00abdb;
        stroke-width: 0px;
      }
    </style>
  </defs>
  <g id="Layer_1" data-name="Layer 1">
    <circle class="cls-1" cx="32.88" cy="33.08" r="32"/>
  </g>
  <g id="Layer_2" data-name="Layer 2">
    <g>
      <path class="cls-3" d="M42.16,49.45h-19.52c-4.39,0-7.96-3.57-7.96-7.96v-19.52c0-4.39,3.57-7.96,7.96-7.96h19.52c4.39,0,7.96,3.57,7.96,7.96v19.52c0,4.39-3.57,7.96-7.96,7.96ZM22.63,16.75c-2.87,0-5.21,2.34-5.21,5.21v19.52c0,2.87,2.34,5.21,5.21,5.21h19.52c2.87,0,5.21-2.34,5.21-5.21v-19.52c0-2.87-2.34-5.21-5.21-5.21h-19.52Z"/>
      <path class="cls-3" d="M35.65,30.03c-.35,0-.7-.13-.97-.4-.54-.54-.54-1.41,0-1.95l5.07-5.07h-1.56c-.76,0-1.38-.62-1.38-1.38s.62-1.38,1.38-1.38h4.89s0,0,0,0h0c.34,0,.66.13.9.34h0c.07.06.13.13.19.2.16.21.26.46.28.74,0,.04,0,.07,0,.11v4.88c0,.76-.62,1.38-1.38,1.38s-1.38-.62-1.38-1.38v-1.56l-5.07,5.07c-.27.27-.62.4-.97.4Z"/>
      <path class="cls-3" d="M26.73,43.81h-4.89s0,0,0,0h0c-.34,0-.66-.13-.9-.34h0s0,0,0,0c-.07-.06-.13-.13-.19-.2-.16-.21-.26-.46-.28-.74,0-.04,0-.07,0-.11v-4.88c0-.76.62-1.38,1.38-1.38s1.38.62,1.38,1.38v1.56l5.07-5.07c.54-.54,1.41-.54,1.95,0,.54.54.54,1.41,0,1.95l-5.07,5.07h1.56c.76,0,1.38.62,1.38,1.38s-.62,1.38-1.38,1.38Z"/>
    </g>
    <text class="cls-2" transform="translate(26.61 58.55)"><tspan x="0" y="0">Space</tspan></text>
    <text/>
  </g>
</svg>