<?xml version="1.0" encoding="UTF-8"?>
<svg xmlns="http://www.w3.org/2000/svg" version="1.1" viewBox="0 0 66 66">
  <defs>
    <style>
      .cls-1 {
        fill: #ff69b4;
        stroke: #3117ff;
        stroke-miterlimit: 10;
      }

      .cls-2 {
        fill: #45ffb8;
      }

      .cls-2, .cls-3, .cls-4 {
        stroke-width: 0px;
      }

      .cls-3 {
        fill: #fff;
      }

      .cls-4 {
        fill: #ffd805;
      }
    </style>
  </defs>
  <g id="Layer_1" data-name="Layer 1">
    <circle class="cls-1" cx="33" cy="33.5" r="32"/>
  </g>
  <g id="Layer_2" data-name="Layer 2">
    <g>
      <path class="cls-4" d="M29.8,20.9v-6.6c0-.5-.1-.9-.4-1.3-.6-.8-1.8-1-2.6-.5-.6.4-1,1-1,1.8v7.2c0,.2,0,.2,0,.3h4v-.8Z"/>
      <path class="cls-4" d="M40.6,21.5v-7.4c0-1.2-1.2-2.3-2.6-1.8-.8.3-1.4,1-1.4,1.9v7.5h4.1c-.1,0-.1,0-.1-.2Z"/>
      <path class="cls-3" d="M21.7,24.9c.4.3.8.3,1.2.3.2,0,.2,0,.2.2v5.1c0,1.7.4,3.3,1.2,4.8.8,1.4,1.8,2.6,3.2,3.5,0,0,.1.1.1.2v3.6c0,.7.1,1.4.4,2.1.5,1.1,1.4,1.9,2.5,2.4.1,0,.2,0,.2.1h4.7s0,0,0,0c.8-.3,1.5-.8,2-1.4.7-.9,1.1-1.9,1-3.1,0-1.2,0-2.4,0-3.6s0-.2.1-.2c1.2-.8,2.1-1.8,2.8-2.9,1-1.6,1.5-3.3,1.6-5.1,0-1.8,0-3.6,0-5.4q0-.2.2-.2c.3,0,.6,0,.9-.1,1-.4,1.4-1.7.8-2.6-.4-.5-.8-.8-1.5-.8h-2.9s0,0,0,0h-11s0,0,0,0h-4s0,0-.3,0c-.9,0-1.8,0-2.7,0-.5,0-1,.2-1.4.6-.7.8-.5,2,.3,2.6Z"/>
      <path class="cls-2" d="M30.9,47.5c0,.7,0,1.5,0,2.2v4.1c0,.3,0,.4.4.4h3.9c.2,0,.3,0,.3-.3v-6.6c0,0,0-.1,0-.1h-4.7c0,0,0,.1,0,.3Z"/>
    </g>
  </g>
</svg>