<?xml version="1.0" encoding="UTF-8"?>
<svg xmlns="http://www.w3.org/2000/svg" version="1.1" viewBox="0 0 66 66">
  <defs>
    <style>
      .cls-1 {
        fill: #f5b3bc;
      }

      .cls-1, .cls-2, .cls-3, .cls-4, .cls-5, .cls-6, .cls-7, .cls-8, .cls-9, .cls-10, .cls-11, .cls-12, .cls-13, .cls-14, .cls-15, .cls-16, .cls-17, .cls-18, .cls-19, .cls-20, .cls-21, .cls-22, .cls-23, .cls-24, .cls-25 {
        stroke-width: 0px;
      }

      .cls-2 {
        fill: #5dc38d;
      }

      .cls-3 {
        fill: #609f74;
      }

      .cls-4 {
        fill: #e6e6e1;
      }

      .cls-5 {
        fill: #f6f0ed;
      }

      .cls-6 {
        fill: #562718;
      }

      .cls-7 {
        fill: #582719;
      }

      .cls-8 {
        fill: #28a166;
      }

      .cls-9 {
        fill: #ef7788;
      }

      .cls-10 {
        fill: #2cb67a;
      }

      .cls-11 {
        fill: #3a2c18;
      }

      .cls-26 {
        font-family: AgencyFB-Reg, 'Agency FB';
        font-size: 6px;
      }

      .cls-26, .cls-17 {
        fill: #fff;
      }

      .cls-12 {
        fill: #74c191;
      }

      .cls-13 {
        fill: #4f5f40;
      }

      .cls-14 {
        fill: #ebede9;
      }

      .cls-15 {
        fill: #23a267;
      }

      .cls-16 {
        fill: #36b97c;
      }

      .cls-27 {
        fill: none;
        stroke: #3117ff;
        stroke-miterlimit: 10;
      }

      .cls-18 {
        fill: #ef7f8e;
      }

      .cls-19 {
        fill: #53311e;
      }

      .cls-20 {
        fill: #7aca9a;
      }

      .cls-21 {
        fill: #e1e1dd;
      }

      .cls-22 {
        fill: #522416;
      }

      .cls-23 {
        fill: #39b97c;
      }

      .cls-24 {
        fill: #2bb378;
      }

      .cls-25 {
        fill: #8fcaa3;
      }
    </style>
  </defs>
  <g id="Layer_1" data-name="Layer 1">
    <ellipse class="cls-17" cx="33.5" cy="35" rx="8.5" ry="22"/>
  </g>
  <g id="Layer_2" data-name="Layer 2">
    <g>
      <g>
        <path class="cls-9" d="M65.35,31.3v3.74c-.02.18-.05.36-.06.54-.04.41-.05.83-.1,1.23-.11.8-.21,1.6-.36,2.4-.13.7-.29,1.39-.47,2.07-.19.73-.4,1.46-.65,2.17-.27.81-.59,1.62-.92,2.41-.49,1.15-1.05,2.27-1.68,3.36-.65,1.12-1.36,2.2-2.13,3.24-.81,1.09-1.7,2.11-2.63,3.09-.56.59-1.17,1.14-1.76,1.7-.05,0-.09.03-.1.08-.05.04-.1.09-.15.13-.06,0-.09.04-.11.09-.05.04-.1.08-.14.13-.08.02-.15.06-.19.15-.03,0-.05.02-.06.05h-.01s0,.01,0,.01c0,0-.01,0-.02.01-.09.01-.13.07-.16.14-.03.02-.06.05-.09.07-.04,0-.06.02-.06.06-.09.08-.19.15-.28.23-.06,0-.08.04-.1.08,0,0-.02,0-.02.01-.04,0-.05.03-.06.06-.04.03-.08.07-.13.1-.09.02-.16.06-.19.15l-.06.04c-.07.02-.13.05-.16.12-.05.04-.1.07-.15.11-.07.01-.13.04-.15.11-.03.03-.06.05-.1.08-.04,0-.06,0-.07.04-.05.04-.1.07-.15.11-.05,0-.08.04-.1.08,0,0-.02,0-.02.01-.04,0-.06.02-.07.05-.02.01-.04.03-.06.04-.11.03-.2.08-.26.18,0,0-.02,0-.02.01-.04,0-.06.02-.07.05,0,0-.02,0-.03.01-.08.03-.15.07-.2.14-.05.03-.09.06-.14.08-.1.04-.21.08-.27.18h0c-.06,0-.11.03-.13.09-.08.03-.15.08-.22.14-.06,0-.11.02-.13.08-.01,0-.02,0-.03.01-.04,0-.06.02-.07.05,0,0-.02,0-.03.01-.08.02-.15.04-.19.12-.01,0-.02.01-.03.02-.06,0-.1.02-.13.07,0,0-.02,0-.03.01-.06,0-.08.03-.11.07-.02,0-.03.01-.05.02-.06.01-.12.02-.15.09h0s-.02.02-.03.03c-.01,0-.02,0-.03.01-.04,0-.06.01-.07.05-.02,0-.04.01-.05.02-.06,0-.08.03-.11.07-.04.02-.07.04-.11.06-.04-.01-.06,0-.07.04,0,0-.02.02-.03.02-.01,0-.02,0-.02.01-.01,0-.02,0-.04.01-.04,0-.06.01-.07.05-.02,0-.04.02-.05.02-.11.03-.21.08-.29.16-.04.02-.08.04-.11.05-.04,0-.06.01-.07.04-.02,0-.04.02-.05.02-.09.02-.18.04-.23.13-.04,0-.09.01-.12.05-.17.04-.32.12-.45.24-.03,0-.06.01-.09.02-.14.05-.29.1-.41.21-.01,0-.02,0-.03,0-.09,0-.17.05-.23.11-.02,0-.03.02-.05.03-.17.04-.32.11-.47.21-.02,0-.04,0-.06.01-.11,0-.19.06-.26.13-.03,0-.06.01-.09.02-.16.06-.34.09-.47.2l-.06.02c-.16.05-.33.08-.46.19-.02,0-.03,0-.05,0-.07-.02-.13,0-.16.06-.02,0-.04,0-.06.01-.06,0-.11.02-.16.06-.02,0-.04,0-.06.01-.3.1-.61.19-.91.3-.08.03-.18.02-.23.11-.05,0-.1.02-.14.03-.05-.01-.09.02-.13.05h-.06c-.07,0-.13.02-.19.07-.02,0-.04,0-.06.01-.23.05-.45.11-.66.2-.02,0-.04,0-.06,0-.18.02-.37.06-.53.14-.02,0-.04,0-.06,0-.08,0-.15.02-.22.06-.02,0-.04,0-.06.01-.07-.01-.13,0-.19.05-.02,0-.04,0-.06.01-.12-.03-.22.02-.32.08-.02,0-.04,0-.06,0-.07-.02-.13,0-.19.05-.03,0-.06,0-.09.01-.1,0-.19.01-.28.06-.02,0-.04,0-.07,0-.07-.02-.13,0-.19.05-.04,0-.09.01-.13.02-.26,0-.5.07-.75.13-.05,0-.1,0-.16.01-.09,0-.17.01-.25.05-.05,0-.11,0-.16.02-.23.02-.47.03-.69.11-.02,0-.04,0-.07,0-.07-.02-.13,0-.2,0-.67.08-1.34.14-2.02.16-.23,0-.47.03-.7.05h-2.04s-.07-.03-.1-.03c-.29-.01-.57-.02-.86-.03-.36-.02-.73-.07-1.09-.08-.3-.01-.6-.1-.9-.06-.02,0-.04,0-.06,0-.23-.1-.48-.11-.73-.12-.02,0-.04,0-.05,0-.09-.05-.19-.07-.29-.06-.02,0-.04,0-.06,0-.12-.05-.25-.05-.38-.06-.02,0-.04,0-.06,0-.12-.05-.24-.11-.38-.07-.03,0-.06-.01-.09-.02-.17-.09-.36-.1-.55-.12-.02,0-.04,0-.05,0-.21-.06-.41-.15-.64-.14-.02,0-.04,0-.05,0-.07-.05-.14-.07-.23-.06-.03,0-.06,0-.09,0-.24-.11-.5-.16-.76-.21-.03,0-.06,0-.08-.01-.09-.08-.21-.08-.32-.11-.26-.08-.51-.18-.79-.23-.02,0-.04,0-.06,0-.26-.14-.54-.21-.82-.28-.03,0-.06-.01-.08-.02-.11-.12-.27-.13-.4-.18-.17-.07-.33-.17-.52-.17-.03,0-.05-.02-.08-.03-.25-.15-.52-.23-.8-.32-.03,0-.05-.02-.08-.03-.02-.03-.04-.04-.07-.04-.03,0-.06-.01-.08-.02-.02-.05-.05-.08-.11-.06-.02,0-.04,0-.05-.01-.07-.08-.16-.1-.26-.12-.03,0-.05-.02-.08-.03-.1-.12-.26-.14-.39-.19l-.05-.02c-.27-.18-.56-.3-.86-.43-.02,0-.03-.01-.05-.02-.01-.04-.04-.05-.07-.05,0,0-.02,0-.03,0-.02-.05-.07-.06-.11-.08-.3-.16-.6-.32-.9-.48-.14-.07-.26-.18-.41-.21-.02,0-.03-.01-.05-.02,0-.04-.03-.05-.07-.05l-.09-.04c-.03-.06-.08-.08-.13-.08-.03-.01-.06-.03-.09-.04-.05-.07-.11-.13-.2-.13-.06-.03-.11-.06-.17-.09-.01-.03-.04-.05-.07-.05,0,0-.02,0-.03-.01-.05-.08-.11-.13-.2-.14-.06-.04-.12-.07-.18-.11-.04-.06-.09-.1-.17-.11,0,0-.02,0-.02-.01-.14-.15-.33-.25-.51-.33h0s-.05-.07-.09-.06c0,0-.02,0-.02-.01-.01-.03-.03-.05-.07-.05-.04-.03-.08-.05-.12-.08-.02-.05-.05-.08-.11-.07,0,0-.02,0-.02-.01-.09-.14-.24-.21-.38-.28-.1-.07-.21-.14-.31-.22-1.41-1.06-2.75-2.2-3.97-3.47-.72-.75-1.4-1.52-2.05-2.33-.8-1-1.54-2.05-2.21-3.14-.4-.65-.77-1.3-1.12-1.97-.24-.47-.47-.95-.72-1.43,0-.02,0-.04,0-.06-.12-.29-.25-.59-.38-.87-.03-.06-.03-.14-.11-.17v-.06c-.09-.28-.21-.55-.32-.83-.05-.13-.06-.28-.17-.38,0-.03-.01-.06-.02-.08-.07-.33-.21-.64-.31-.95-.05-.17-.09-.34-.18-.49,0-.02-.01-.04-.02-.06,0-.04,0-.07-.02-.11-.18-.66-.36-1.33-.55-1.99-.04-.15-.03-.32-.13-.46,0-.02,0-.03,0-.05-.02-.22-.06-.44-.14-.66,0-.03,0-.06,0-.09,0-.09,0-.17-.06-.25,0-.02,0-.04,0-.07,0-.03.01-.05,0-.08-.11-.54-.18-1.08-.25-1.62-.04-.27-.04-.55-.12-.82,0-.02,0-.04,0-.06.02-.27-.04-.54-.05-.81-.02-.44-.05-.89-.07-1.33,0-.07,0-.15-.08-.19v-2.42c.09-.02.08-.1.09-.17.04-.77.1-1.54.19-2.31.08-.73.2-1.46.34-2.18.15-.78.33-1.55.54-2.32.2-.73.42-1.46.67-2.18.29-.83.61-1.64.97-2.44.44-1,.94-1.97,1.48-2.92.8-1.41,1.71-2.75,2.72-4.02.88-1.12,1.84-2.16,2.87-3.15,1-.97,2.06-1.87,3.18-2.69.9-.66,1.82-1.28,2.78-1.84.08-.01.16-.03.2-.11,0,0,.02,0,.02-.01.14-.03.26-.1.35-.21l.09-.04s.07,0,.1-.02c.35-.2.71-.4,1.07-.58.04-.02.08-.03.09-.08.02,0,.03-.01.05-.02.23-.06.42-.19.63-.28.07-.03.17-.04.2-.14.03,0,.05-.01.08-.02.31-.09.59-.25.88-.37.12-.05.27-.06.35-.18.03,0,.05-.01.08-.02.16-.05.33-.07.46-.2l.12-.05c.18-.02.35-.08.5-.19h0c.06,0,.11,0,.17-.02.25-.09.51-.17.76-.27.17-.07.37-.07.53-.2.02,0,.04,0,.05-.01.05,0,.1,0,.14,0,.48-.16.97-.3,1.47-.42.38-.1.76-.2,1.16-.26.05,0,.09-.03.11-.08.03,0,.06,0,.09,0,.29.02.55-.09.83-.13.08-.01.18,0,.24-.08.02,0,.04,0,.06,0,.09,0,.18.02.26-.05.08,0,.16-.02.24-.03.06.02.13.03.17-.03.04,0,.08,0,.12,0,.2,0,.39,0,.57-.09.02,0,.04,0,.06,0,.06.03.11.03.16-.01.02,0,.04,0,.05,0,.09,0,.19.05.27-.04.02,0,.04,0,.06,0,.05.03.11.03.16-.01h.09c.1,0,.21.04.3-.05.05,0,.1,0,.15,0,.1.03.19.04.28-.01.04,0,.08,0,.12,0,.44-.01.87-.02,1.31-.04.13,0,.27.02.36-.11h1.66c.04.08.12.11.19.12.42.01.84.02,1.26.03.08,0,.16,0,.24.01.09.05.19.04.28.01.04,0,.08.01.13.02.09.06.19.03.29.03.02,0,.04,0,.05,0,.07.05.15.04.22.01.02,0,.04,0,.05,0,.14.1.29.08.45.06.03,0,.06,0,.09,0,.1.07.2.09.32.06.03,0,.06,0,.09.01.09.08.19.08.3.06.05,0,.1,0,.15.01.1.07.21.07.32.05.07,0,.14.02.21.02.08.08.19.07.29.06.04,0,.08,0,.12.01.17.08.36.12.55.12.03,0,.06,0,.08.01.02.03.04.03.06,0,.02,0,.04,0,.06,0,.05.06.11.09.19.06.04,0,.08,0,.12,0,.04.07.09.09.16.05.02,0,.04,0,.06,0,.08.07.17.07.27.06.02,0,.03,0,.05.01.02.03.04.03.06,0,.02,0,.04,0,.06.01.03.03.05.06.1.02.04.01.08.02.12.03.06.07.14.09.22.06.02,0,.04,0,.06,0,.17.1.35.15.54.14.02,0,.04,0,.06,0,.09.11.22.12.35.12.02,0,.04,0,.06,0,.1.1.23.12.36.12.05.01.1.02.15.04.9.29,1.79.61,2.66.97,1.31.54,2.58,1.17,3.8,1.88,1.26.73,2.47,1.54,3.62,2.44.76.59,1.5,1.22,2.2,1.89.99.94,1.94,1.92,2.81,2.97.99,1.19,1.88,2.45,2.69,3.78.82,1.35,1.54,2.75,2.16,4.21.4.95.74,1.92,1.06,2.89.26.79.47,1.6.66,2.41.15.66.29,1.32.39,2,.11.74.23,1.48.28,2.22.02.36.01.73.12,1.09ZM33.16,56.77h0s-.06.03-.06.06h0s-.03.04-.03.06h0c-.05.03-.07.09-.11.13-.04.05-.05.13-.14.12-.03-.13-.07-.25-.08-.38-.02-.36-.19-.63-.5-.81-.07-.04-.13-.1-.22-.1-.53,0-1.06,0-1.58,0-.06.04-.04.1-.03.16.02.11.05.22.08.33.11.52.21,1.04.31,1.56.11.54.21,1.07.33,1.61.04.18.04.38.15.55.13.11.26.21.39.32.07.06.14.08.23.08.4,0,.79,0,1.19,0,.1,0,.15-.04.2-.12.08-.15.16-.29.25-.43.02-.04.03-.11.1-.09.02.07.06.13.11.18.14.18.34.29.51.44.04.03.09.03.14.03.4,0,.81,0,1.21,0,.09,0,.14-.03.16-.13.24-1.21.47-2.42.74-3.62.08-.35.02-.57-.28-.74-.11-.07-.21-.12-.34-.12-.5,0-.99,0-1.49,0-.06,0-.06.05-.07.09-.04.19-.08.38-.12.56-.06.3-.11.6-.2.89-.17-.29-.38-.53-.66-.71-.06-.04-.11-.1-.15.01h0s-.03.03-.03.06ZM46.03,59.98s0,.05.03.06c.12.1.24.2.36.3.1.09.22.13.36.13.55,0,1.1,0,1.65,0,.06,0,.12.02.18-.04-.33-.44-.65-.87-.97-1.3.03-.07.07-.08.11-.09.35-.18.53-.47.56-.85.02-.25,0-.5.01-.75,0-.34-.11-.64-.37-.86-.15-.13-.31-.25-.47-.37,0-.03-.03-.05-.06-.06-.03-.04-.07-.06-.12-.07-.17-.17-.39-.2-.61-.21h-3.72c-.06.21-.01.41-.02.61,0,1.14,0,2.28,0,3.42,0,.06-.03.13.03.18.14.11.27.23.41.34.05.04.11.05.17.05.52,0,1.05,0,1.57,0,.11,0,.16-.03.16-.15,0-.31,0-.62,0-.93,0-.06-.02-.13.02-.18.06-.03.12-.01.18,0,0,.04.03.07.06.09.03.07.06.14.13.19.01.02.02.04.03.06,0,.06.05.09.09.13.03.07.06.14.13.19.01.02.02.04.03.06,0,.03.03.06.06.07ZM24.89,59.73s.02.04.04.06c.05.07.11.12.19.15.38.39.84.56,1.4.53.64-.03,1.29,0,1.93,0,.25,0,.49.01.74-.01.52-.05.86-.41.86-.92,0-.78,0-1.56,0-2.34,0-.26-.09-.49-.29-.67-.15-.13-.3-.24-.45-.36-.01-.04-.05-.05-.08-.06-.17-.18-.38-.23-.61-.23-1,0-2.01,0-3.01,0-.19,0-.36.04-.51.15-.11.05-.2.11-.25.22-.16.16-.18.36-.18.57,0,.78,0,1.56,0,2.34,0,.18.02.36.15.5.01.05.04.08.09.1ZM23.37,56.1c-.18-.17-.4-.23-.64-.23-1.21,0-2.43,0-3.64,0-.12,0-.12.06-.12.15,0,1.31,0,2.61,0,3.92,0,.06-.01.12.06.15.14.11.27.23.41.34.05.04.1.05.16.05.53,0,1.06,0,1.58,0,.11,0,.15-.04.14-.15,0-.28,0-.55,0-.83,0-.14.04-.18.18-.17.57,0,1.14,0,1.71,0,.65,0,1.13-.49,1.13-1.13,0-.27,0-.54,0-.82,0-.3-.11-.55-.32-.76-.14-.14-.3-.26-.46-.38-.05-.06-.1-.11-.18-.13ZM37.2,60.08c.09.07.18.14.26.23.12.12.26.16.44.16.86,0,1.71,0,2.57,0,.54,0,1.08,0,1.61,0,.12,0,.17-.03.17-.16,0-.33,0-.66,0-.99,0-.08,0-.14-.07-.2-.14-.1-.27-.21-.41-.31-.15-.08-.32.01-.48-.05,0-.22,0-.43,0-.64,0-.19.02-.38-.17-.5,0,0,0-.02,0-.04.33,0,.65,0,.98,0,.11,0,.15-.04.15-.15,0-.35,0-.69,0-1.04,0-.05,0-.1-.03-.13-.17-.14-.32-.3-.52-.39-.03,0-.05,0-.08,0-1.45,0-2.9,0-4.34,0-.04,0-.08,0-.12.03,0,.02,0,.04,0,.07,0,1.33,0,2.65,0,3.98,0,.05,0,.11.06.13ZM29.82,21.71c0-.28,0-.55,0-.82,0-2.2,0-4.41,0-6.61,0-.5-.13-.95-.44-1.35-.62-.79-1.77-1.01-2.61-.48-.64.4-.96.99-.96,1.75,0,2.41,0,4.82,0,7.22,0,.32.06.29-.28.29-.91,0-1.82.01-2.73,0-.55,0-1,.21-1.37.61-.69.77-.54,2.01.31,2.59.38.26.8.34,1.24.31.16,0,.2.03.2.2,0,1.71,0,3.41,0,5.12,0,1.71.41,3.33,1.24,4.82.78,1.4,1.83,2.56,3.16,3.47.09.06.12.12.12.23,0,1.21,0,2.43,0,3.64,0,.72.13,1.41.44,2.07.52,1.11,1.37,1.88,2.49,2.36.28.12.29.11.29.41,0,.74.01,1.47.01,2.21,0,1.37,0,2.73,0,4.1,0,.32.07.39.38.39,1.07,0,2.14,0,3.2,0,.23,0,.45,0,.68,0,.21,0,.31-.1.32-.3,0-.05,0-.1,0-.16,0-2.14,0-4.27,0-6.41,0-.11.04-.15.14-.19.82-.29,1.51-.77,2.05-1.44.73-.9,1.06-1.93,1.05-3.08-.01-1.2,0-2.4,0-3.6,0-.11.02-.18.12-.25,1.15-.77,2.09-1.75,2.83-2.92,1-1.56,1.53-3.27,1.56-5.11.03-1.79,0-3.59.01-5.39,0-.21,0-.21.21-.2.3,0,.61,0,.89-.12,1.02-.41,1.41-1.69.78-2.59-.36-.51-.84-.79-1.47-.79-.95,0-1.91,0-2.86,0-.15,0-.18-.05-.18-.19,0-.66,0-1.32,0-1.98,0-1.82,0-3.64,0-5.46,0-1.19-1.25-2.27-2.62-1.83-.84.27-1.38,1.03-1.38,1.93,0,1.98,0,3.96,0,5.94,0,.52,0,1.04,0,1.58h-6.81Z"/>
        <path class="cls-21" d="M1.24,36.52c-.1-.15-.06-.33-.11-.49-.02-.06-.02-.11-.1-.11v-1.73c.08.04.08.11.08.19.02.44.05.89.07,1.33.01.27.07.54.05.81Z"/>
        <path class="cls-1" d="M30.17,65.35c0-.08-.07-.07-.12-.07-.26,0-.51-.1-.77-.1-.02,0-.04-.03-.06-.04.31-.04.6.05.9.06.36.01.73.06,1.09.08.29.02.57.02.86.03.04,0,.07,0,.1.03h-2.01Z"/>
        <path class="cls-4" d="M37.15,65.14c-.16.09-.35.06-.52.11-.1.03-.22-.02-.29.09h-2.1c.23-.02.47-.04.7-.05.68-.02,1.35-.08,2.02-.16.07,0,.13-.02.2,0Z"/>
        <path class="cls-1" d="M35.45,1.03c-.01.08.07.09.1.14-.42,0-.84-.01-1.26-.03-.07,0-.15-.04-.19-.12h1.35Z"/>
        <path class="cls-1" d="M30.76,1.18c.1-.07.23-.06.34-.08.05,0,.12.02.14-.07h1.19c-.09.13-.24.1-.36.11-.44.02-.87.02-1.31.04Z"/>
        <path class="cls-7" d="M29.82,21.71h6.81c0-.53,0-1.06,0-1.58,0-1.98,0-3.96,0-5.94,0-.9.54-1.66,1.38-1.93,1.37-.44,2.62.64,2.62,1.83,0,1.82,0,3.64,0,5.46,0,.66,0,1.32,0,1.98,0,.14.03.19.18.19.95,0,1.91,0,2.86,0,.63,0,1.12.28,1.47.79.63.9.25,2.18-.78,2.59-.29.12-.59.13-.89.12-.21,0-.21,0-.21.2,0,1.8.02,3.59-.01,5.39-.03,1.85-.56,3.55-1.56,5.11-.75,1.16-1.69,2.14-2.83,2.92-.1.06-.12.14-.12.25,0,1.2,0,2.4,0,3.6.01,1.16-.32,2.19-1.05,3.08-.55.67-1.23,1.16-2.05,1.44-.1.04-.14.08-.14.19,0,2.14,0,4.27,0,6.41,0,.05,0,.1,0,.16,0,.21-.11.3-.32.3-.23,0-.45,0-.68,0-1.07,0-2.14,0-3.2,0-.31,0-.38-.08-.38-.39,0-1.37,0-2.73,0-4.1,0-.74,0-1.47-.01-2.21,0-.3,0-.29-.29-.41-1.12-.48-1.97-1.25-2.49-2.36-.31-.66-.44-1.35-.44-2.07,0-1.21,0-2.43,0-3.64,0-.11-.04-.17-.12-.23-1.33-.91-2.38-2.07-3.16-3.47-.83-1.5-1.24-3.11-1.24-4.82,0-1.71,0-3.41,0-5.12,0-.16-.04-.21-.2-.2-.44.03-.86-.05-1.24-.31-.85-.58-1-1.82-.31-2.59.37-.41.82-.62,1.37-.61.91,0,1.82,0,2.73,0,.34,0,.28.03.28-.29,0-2.41,0-4.82,0-7.22,0-.75.32-1.35.96-1.75.84-.53,2-.31,2.61.48.31.4.44.85.44,1.35,0,2.2,0,4.41,0,6.61,0,.27,0,.54,0,.82ZM44.49,22.61h0s-.03-.06-.07-.06h0s-.03-.03-.06-.04h0c0-.08-.06-.1-.13-.09h0s-.04-.03-.07-.03l-.09-.04c0-.05-.05-.06-.09-.07-.18-.03-.36-.06-.54-.06-6.2,0-12.41,0-18.61,0-.65,0-1.3,0-1.95,0-.13,0-.26.02-.38.06-.15,0-.27.12-.41.16,0,0,0,.02,0,.03,0,0-.02,0-.03,0-.01,0-.02.02-.04.03-.04.03-.08.06-.09.11-.05.05-.09.09-.14.14-.27.24-.38.77-.24,1.1.1.23.24.42.41.6.01.05-.04.1,0,.14.05.01.06-.03.09-.05.03.02.05.06.09.06.05.14.14.17.25.06h.06c.03.09.1.05.16.06.06.01.12.02.19.03.12.03.26.1.35-.06.07,0,.15,0,.22,0,.02.11.11.09.19.09.48,0,.97,0,1.45,0,.05,0,.11-.02.14.04,0,.04-.03.05-.05.05-.19-.02-.37.02-.55.06-.04,0-.08,0-.12-.01-.11-.03-.22,0-.33,0-.19,0-.34.03-.31.28-.03.01-.06.02-.07.06-.07.02-.08.07-.07.13,0,.06.01.11.01.17,0,1.8,0,3.61,0,5.41,0,.09-.03.18-.02.26.02.29.03.59.1.87.08.33.12.68.25,1,.08.22.13.45.22.67.11.29.24.58.37.86.07.15.12.33.29.41,0,0,0,0,0,0,0,.01.02.03.03.04,0,0,0,.01,0,.02.02.05-.06.16.08.14h.01s0,.02,0,.02c-.04.08-.02.12.07.13h0c-.04.12.07.18.11.28.09.23.28.39.41.59.02.04.06.05.11.05,0,0,0,0,0,0,0,.05-.02.11.06.13.03.06.06.1.13.09,0,0,.02.02.03.03.05.19.11.37.3.48.06.04.12.08.17.14.37.47.9.75,1.3,1.18.06.06.17.02.21.07.13.16.32.24.49.35.5.33,1.07.52,1.61.77.24.11.5.13.75.21.59.2,1.21.27,1.83.3.38.02.76,0,1.15,0,.51,0,1.01-.08,1.5-.18.44-.09.87-.21,1.29-.37.48-.19.94-.39,1.39-.64.4-.23.8-.47,1.16-.77.1-.08.28-.11.32-.19.13-.23.35-.35.52-.53.16-.17.37-.32.51-.51.25-.35.54-.65.76-1.02.05-.08.09-.18.17-.24.1-.07.15-.17.17-.28.08-.04.06-.11.03-.17.03-.07.04-.16.12-.21.08-.01.14-.03.06-.13,0-.07.06-.12.08-.18.04,0,.08.05.14,0-.03-.12.17-.22.04-.36.11-.3.22-.6.33-.91.03,0,.05-.02.04-.06v-.05c.06.02.1.02.12-.06.03-.1.01-.2,0-.3,0-.03,0-.06,0-.09.05,0,.11.01.12-.06.01-.06.01-.11-.06-.13-.01-.07.01-.13.04-.19,0-.02,0-.04.01-.05,0-.04.01-.09.02-.13.05-.01.07-.03.02-.07.03-.23.05-.46.08-.69.01-.01.03-.02.04-.03-.01-.01-.03-.02-.04-.03.02-.33.04-.67.06-1,.09-.1.11-.19,0-.29v-.22c.1-.04.06-.12.06-.19,0-1.43,0-2.86,0-4.29,0-.25-.11-.35-.35-.36-.05,0-.11.02-.16-.02,0-.05.03-.07.04-.1.14,0,.27,0,.41-.1-.05-.02-.09-.04-.12-.06,0-.03,0-.06,0-.09h.16s.01.09.07.09c.06,0,.1-.02.11-.09.1,0,.21,0,.31,0,.03.14.15.08.23.09.07,0,.11-.01.11-.09.05,0,.1,0,.16,0,.06.04.12.06.16-.03.24-.01.45-.09.59-.29h0c.07,0,.1-.04.14-.08.25-.25.3-.56.3-.89,0-.04,0-.07-.05-.09v-.07c.03-.15,0-.28-.14-.37h0c-.01-.09-.04-.17-.15-.19,0,0,0-.01,0-.02-.01-.01-.03-.03-.04-.04,0,0-.01,0-.02,0-.01-.01-.02-.02-.03-.03ZM32.43,40.57s-.06,0-.09,0c-.05,0-.1,0-.15-.01-.06-.04-.13-.04-.2-.03-.04,0-.09-.01-.13-.02-.1-.03-.2-.06-.31-.05h-.07c-.08-.04-.16-.07-.25-.06-.03,0-.07-.01-.1-.02-.02-.01-.03-.02-.05,0-.02,0-.04,0-.06,0-.03-.03-.06-.05-.1-.03-.02,0-.04-.01-.07-.02-.06-.03-.12-.05-.18-.05-.02,0-.05,0-.07-.01-.05-.02-.1-.05-.15-.04-.02,0-.04-.01-.07-.02-.2-.09-.41-.14-.62-.2-.03,0-.07-.02-.1-.03-.07-.05-.15-.09-.24-.1-.03,0-.07-.02-.1-.03-.03-.04-.07-.05-.12-.06h0c0-.08-.03-.13-.1-.16-.21-.09-.41-.19-.61-.3-.07-.04-.18-.13-.26.01-.04,0-.04.03-.04.07,0,1.23,0,2.46,0,3.69,0,.13-.01.27.02.38.09.35.17.71.33,1.04.14.28.27.57.46.81.23.28.49.56.8.77.26.18.51.36.8.49.52.24,1.07.35,1.63.37.62.02,1.23.01,1.85,0,.27,0,.55-.04.82-.09.63-.11,1.19-.37,1.7-.75.09-.07.22-.12.22-.27h0c.13,0,.21-.05.2-.2h0c.17-.02.41-.3.42-.52,0-.01.02-.02.02-.03.15-.05.2-.16.2-.31,0-.02,0-.04.01-.06.31-.57.47-1.18.48-1.82.01-1.13,0-2.26,0-3.39,0-.07,0-.14,0-.23-.69.37-1.38.67-2.1.89-.01,0-.02,0-.03,0-.02,0-.04.01-.06.02-.06,0-.11.02-.15.05-.02,0-.05.01-.07.02-.07,0-.12.02-.18.05-.02,0-.05.01-.07.02-.02,0-.04,0-.06.01-.02,0-.05.01-.07.02-.03,0-.06,0-.09.01-.02,0-.05.01-.07.02-.03,0-.06,0-.09.02-.03,0-.07.01-.1.02-.02-.01-.04,0-.06,0-.04,0-.09.01-.13.02-.03-.01-.06,0-.09.01-.03,0-.07.01-.1.02-.03-.01-.06,0-.09,0-.03,0-.07,0-.1.01-.06,0-.12,0-.18.03-.2.01-.4.03-.6.04-.33,0-.67,0-1,0h-.15s-.07-.01-.1-.01ZM37.2,20.34c-.09,0-.08.07-.09.13-.02.35.04.71.03,1.06,0,.04,0,.08.06.1,0,.01.01.02.02.03,0,.05.04.05.08.05.47,0,.93,0,1.4-.01.36,0,.72,0,1.08,0,.09,0,.22.07.26-.09.05-.05.03-.11.03-.16,0-.57,0-1.14,0-1.71,0-1.82,0-3.65,0-5.47,0-.12.03-.25-.05-.36,0-.11-.04-.2-.09-.3-.11-.29-.33-.48-.57-.64-.7-.46-1.72-.13-2.03.64-.03.08-.06.17-.09.25-.03-.04-.06-.04-.07.01-.02.08-.05.16-.05.25,0,1.98,0,3.96,0,5.93,0,.08,0,.17.09.22,0,.03,0,.06,0,.09ZM35.01,47.51s-.03,0-.05,0c-.01-.07-.05-.1-.12-.08-.28.04-.56.04-.84.05-.44,0-.88,0-1.32,0-.33-.01-.67.01-1-.05-.17-.03-.19-.02-.19.16,0,.39,0,.77,0,1.16,0,1.59,0,3.18,0,4.77,0,.1-.02.18.14.18,1.06,0,2.12,0,3.19,0,.06,0,.12,0,.15-.06.06,0,.08-.03.07-.09-.01-.06-.02-.12-.02-.19,0-1.95,0-3.9,0-5.85h0s0,0,0,0ZM26.5,13.59c-.05,0-.09.02-.09.08-.02.15-.06.3-.06.46,0,1.14,0,2.27,0,3.41,0,1.36,0,2.72-.01,4.08,0,.05.02.07.06.06.02,0,.05.02.07.02.29,0,.59-.01.88-.02.07,0,.15.01.22.01.45,0,.91,0,1.36,0,.31,0,.31.01.31-.3,0-2.14,0-4.28,0-6.42,0-.22.02-.44-.01-.66.03-.24.01-.48-.09-.7-.21-.45-.52-.77-1.04-.83,0,0-.01,0-.02,0-.04-.07-.11-.05-.17-.05-.08-.02-.17-.01-.25,0-.02,0-.05,0-.07.01-.05,0-.1,0-.15.02-.45.11-.74.4-.94.8Z"/>
        <path class="cls-18" d="M34.38,55.9h1.62c.03.1-.01.19-.03.28-.25,1.23-.5,2.47-.75,3.7-.02.08-.03.14-.13.14-.45,0-.9,0-1.35-.01-.06-.05-.1-.11-.11-.18,0,0,0-.02,0-.03,0,0,0,0,.01,0,0,0,0,0-.01,0-.09-.26-.25-.47-.4-.73-.18.31-.34.58-.5.85-.04.07-.08.1-.16.1-.43,0-.87,0-1.3,0-.09-.45-.19-.9-.28-1.34-.11-.53-.22-1.06-.32-1.59-.07-.39-.19-.78-.22-1.18h1.63c.13.65.26,1.28.39,1.91.01,0,.03,0,.04.01.11-.18.22-.36.33-.54.08-.12.19-.22.21-.38h0s.03-.04.03-.06c0,0,0,0,0,0,.04,0,.06-.02.06-.06h0s.03-.03.03-.06h0c.07,0,.1.05.12.1.13.2.25.41.38.61.08.13.15.27.26.4.07-.12.08-.24.09-.35.14-.52.22-1.05.34-1.57ZM30.59,56.03s-.01.07,0,.11c.25,1.22.5,2.44.74,3.66.02.09.06.12.15.12.24,0,.47-.03.71,0,.34.05.53-.08.66-.39.1-.23.25-.43.37-.65.07.03.08.08.1.12.14.24.29.48.42.73.07.13.15.19.3.18.3-.01.61,0,.91,0,.12,0,.16-.04.18-.15.19-.94.38-1.89.57-2.83.06-.3.12-.6.18-.9-.03-.01-.04-.02-.06-.02-.43,0-.86,0-1.29,0-.1,0-.11.07-.12.14-.06.29-.11.57-.17.86-.07.37-.15.73-.24,1.14-.27-.44-.52-.84-.79-1.27-.27.43-.52.83-.78,1.26-.02-.1-.04-.15-.05-.2-.12-.59-.25-1.19-.36-1.78-.02-.12-.08-.16-.2-.16-.37,0-.73,0-1.1,0-.05,0-.11-.01-.15.02Z"/>
        <path class="cls-5" d="M42.99,60.01s0,.04,0,.06c-.06-.05-.03-.12-.03-.18,0-1.14,0-2.28,0-3.42,0-.2-.04-.4.02-.61,1.24,0,2.48,0,3.72,0,0,0,0,.02,0,.03-1.23,0-2.46,0-3.71,0v4.12Z"/>
        <path class="cls-5" d="M37.21,60.02s0,.04,0,.06c-.06-.03-.06-.08-.06-.13,0-1.33,0-2.65,0-3.98,0-.03,0-.05,0-.07.04-.04.08-.03.12-.03,1.45,0,2.9,0,4.34,0,.03,0,.05,0,.08,0,0,.01,0,.02,0,.03-.03,0-.05,0-.08,0-1.44,0-2.87,0-4.31,0-.04,0-.08-.01-.12.03,0,.02,0,.05,0,.07,0,1.3,0,2.59,0,3.89,0,.05,0,.09.03.13Z"/>
        <path class="cls-5" d="M19.03,60.02s0,.04,0,.06c-.07-.03-.06-.09-.06-.15,0-1.31,0-2.61,0-3.92,0-.09,0-.15.12-.15,1.21,0,2.43,0,3.64,0,0,0,0,.02,0,.02-1.24,0-2.48,0-3.72,0,0,.06-.01.08-.01.11,0,1.3,0,2.59,0,3.89,0,.05,0,.09.03.13Z"/>
        <path class="cls-1" d="M30.43,55.87s.02.02.03.03c.04.4.15.79.22,1.18.1.53.21,1.06.32,1.59.09.45.18.9.28,1.34,0,.02,0,.04,0,.06-.11-.17-.11-.36-.15-.55-.12-.53-.22-1.07-.33-1.61-.1-.52-.21-1.04-.31-1.56-.02-.11-.05-.22-.08-.33-.01-.05-.04-.11.03-.16Z"/>
        <path class="cls-1" d="M24.8,59.64c-.13-.14-.15-.32-.15-.5,0-.78,0-1.56,0-2.34,0-.2.02-.41.18-.57,0,0,0,0,.01.01-.15.28-.14.59-.14.9,0,.57,0,1.15,0,1.72,0,.26,0,.51.11.75,0,0-.01,0-.02.01Z"/>
        <path class="cls-1" d="M23.64,2.53c.1-.09.23-.1.34-.13.3-.1.61-.19.91-.27.52-.13,1.04-.25,1.57-.37.01,0,.03,0,.05,0-.02.05-.05.07-.11.08-.39.06-.77.16-1.16.26-.49.13-.98.27-1.47.42-.04.01-.09,0-.14,0Z"/>
        <path class="cls-21" d="M1.61,39.1c-.12-.17-.1-.38-.13-.57-.08-.46-.15-.92-.21-1.39-.02-.18-.08-.37-.03-.55.08.27.08.54.12.82.08.54.14,1.08.25,1.62,0,.02,0,.05,0,.08Z"/>
        <path class="cls-21" d="M2.52,42.77c-.13-.17-.14-.38-.2-.57-.16-.5-.29-1.01-.41-1.52-.04-.15-.12-.3-.08-.47.1.14.08.31.13.46.19.66.37,1.33.55,1.99,0,.03.01.07.02.11Z"/>
        <path class="cls-1" d="M18.62,61.86c-.21-.05-.38-.17-.57-.27-.26-.14-.51-.28-.76-.42-.04-.02-.07-.04-.09-.08.16.03.28.14.41.21.3.16.6.32.9.48.04.02.09.04.11.08Z"/>
        <path class="cls-5" d="M25.59,55.86c1,0,2.01,0,3.01,0,0,0,0,.02,0,.03-1,0-2.01,0-3.01,0,0,0,0-.02,0-.03Z"/>
        <path class="cls-21" d="M3.03,44.28c-.11-.12-.12-.27-.17-.41-.11-.3-.21-.6-.31-.9-.01-.04-.05-.08-.01-.13.09.15.13.32.18.49.1.32.24.63.31.95Z"/>
        <path class="cls-1" d="M34.04,57.46s-.03-.03-.04-.05c.09-.29.13-.6.2-.89.04-.19.08-.38.12-.56,0-.04.01-.09.07-.09,0,.01,0,.02,0,.03-.12.52-.2,1.05-.34,1.57Z"/>
        <path class="cls-1" d="M22.13,3.04c.06-.09.17-.08.26-.12.35-.13.71-.25,1.06-.36.04-.01.08-.01.12-.02-.15.13-.35.13-.53.2-.25.1-.51.18-.76.27-.06.02-.11.03-.17.02Z"/>
        <path class="cls-1" d="M17.51,5.17c.05-.1.16-.12.24-.16.31-.17.61-.32.92-.48.03-.02.07-.02.1-.03-.01.05-.05.06-.09.08-.36.18-.72.37-1.07.58-.03.02-.07.03-.1.02Z"/>
        <path class="cls-1" d="M19.74,4.03c.16-.14.36-.2.55-.28.23-.09.44-.22.69-.27-.09.12-.23.13-.35.18-.29.12-.58.28-.88.37Z"/>
        <path class="cls-21" d="M3.53,45.56c-.05-.02-.06-.06-.08-.11-.13-.32-.25-.65-.38-.97-.02-.04-.03-.08-.02-.12.11.1.12.25.17.38.11.27.23.54.31.83Z"/>
        <path class="cls-21" d="M4.03,46.73c-.11-.08-.12-.22-.17-.33-.11-.25-.25-.5-.32-.77.08.03.08.11.11.17.13.29.26.58.38.87,0,.02,0,.04,0,.06Z"/>
        <path class="cls-4" d="M44.12,63.45s-.04.06-.08.07c-.34.11-.67.23-1.01.34-.02,0-.04,0-.06,0,.05-.09.15-.08.23-.11.3-.11.61-.2.91-.3Z"/>
        <path class="cls-1" d="M26.59,1.75c.2-.09.42-.11.63-.15.14-.03.29-.11.44-.06-.06.09-.16.06-.24.08-.28.05-.54.15-.83.13Z"/>
        <path class="cls-1" d="M24.68,64.22c-.22,0-.42-.09-.62-.16-.16-.05-.35-.06-.49-.18.27.04.53.15.79.23.11.03.23.04.32.11Z"/>
        <path class="cls-1" d="M22.61,63.58c-.32-.1-.64-.18-.93-.35.19,0,.35.11.52.17.14.05.3.06.4.18Z"/>
        <path class="cls-1" d="M18.83,4.47c.07-.1.19-.13.29-.17.18-.08.34-.21.55-.25-.03.1-.12.1-.2.14-.21.09-.41.22-.63.28Z"/>
        <path class="cls-1" d="M29.17,65.13c-.26.05-.49-.03-.73-.12.25,0,.5.02.73.12Z"/>
        <path class="cls-1" d="M19.63,62.36c-.3-.11-.6-.22-.86-.43.29.12.59.24.86.43Z"/>
        <path class="cls-4" d="M39.22,64.81c-.24.08-.49.16-.75.13.25-.06.49-.13.75-.13Z"/>
        <path class="cls-1" d="M25.53,64.44c-.16.03-.29-.06-.43-.09-.11-.02-.24-.02-.33-.12.26.04.52.09.76.21Z"/>
        <path class="cls-1" d="M21.61,63.2c-.28-.07-.55-.16-.8-.32.27.09.55.18.8.32Z"/>
        <path class="cls-1" d="M23.52,63.87c-.29-.05-.56-.14-.82-.28.28.06.56.14.82.28Z"/>
        <path class="cls-4" d="M37.9,65.02s-.02.03-.03.03c-.22.02-.43.13-.66.08.22-.09.46-.09.69-.11Z"/>
        <path class="cls-21" d="M1.82,40.16c-.1-.21-.14-.43-.14-.66.07.21.12.43.14.66Z"/>
        <path class="cls-4" d="M42.39,64.02c-.06.1-.17.08-.26.11-.13.04-.25.11-.4.09.21-.09.43-.16.66-.2Z"/>
        <path class="cls-1" d="M26.53,64.66c-.23,0-.44-.05-.64-.14.22,0,.43.09.64.14Z"/>
        <path class="cls-1" d="M22.73,55.89s0-.02,0-.02c.24,0,.46.07.64.23,0,0-.01.02-.02.02-.19-.12-.41-.17-.62-.23Z"/>
        <path class="cls-1" d="M28.6,55.89s0-.02,0-.03c.23,0,.44.06.61.23,0,0-.01.02-.02.02-.18-.13-.38-.18-.59-.23Z"/>
        <path class="cls-1" d="M15.73,60.19c-.2-.07-.37-.18-.51-.33.18.09.37.18.51.33Z"/>
        <path class="cls-1" d="M28.51,1.42c.19-.06.37-.11.57-.09-.18.1-.37.1-.57.09Z"/>
        <path class="cls-1" d="M46.69,55.89s0-.02,0-.03c.22.01.44.04.61.21,0,0,0,0-.01.01-.19-.09-.39-.14-.59-.19Z"/>
        <path class="cls-1" d="M41.38,2.12c.19.02.37.06.54.14-.2,0-.37-.05-.54-.14Z"/>
        <path class="cls-4" d="M41.67,64.23c-.16.11-.34.14-.53.14.17-.08.35-.12.53-.14Z"/>
        <path class="cls-1" d="M27.14,64.79c-.19,0-.38-.01-.55-.12.19.02.38.04.55.12Z"/>
        <path class="cls-1" d="M39.15,1.62c.19,0,.38.04.55.12-.19,0-.38-.04-.55-.12Z"/>
        <path class="cls-1" d="M36.83,1.26c.15-.02.3,0,.45.06-.15.03-.31.04-.45-.06Z"/>
        <path class="cls-1" d="M21.63,3.22c.16-.09.32-.17.5-.19-.15.1-.32.17-.5.19Z"/>
        <path class="cls-4" d="M46.48,62.51c-.14.11-.29.19-.47.21.15-.09.3-.17.47-.21Z"/>
        <path class="cls-4" d="M45.6,62.88c-.13.14-.31.15-.47.2.14-.12.31-.14.47-.2Z"/>
        <path class="cls-1" d="M25.59,55.86s0,.02,0,.03c-.17.04-.33.09-.5.13h0c.15-.12.32-.17.51-.16Z"/>
        <path class="cls-1" d="M21.06,3.46c.13-.12.3-.15.46-.2-.12.13-.3.14-.46.2Z"/>
        <path class="cls-4" d="M45.06,63.1c-.13.11-.29.16-.46.19.13-.12.3-.14.46-.19Z"/>
        <path class="cls-1" d="M14.79,59.56c-.14-.07-.28-.14-.38-.28.14.07.29.14.38.28Z"/>
        <path class="cls-4" d="M47.73,61.9c-.13.11-.28.19-.45.24.13-.11.28-.19.45-.24Z"/>
        <path class="cls-1" d="M32.86,57.28s-.05-.08-.04-.13c.09.01.1-.07.14-.12.03-.04.05-.1.11-.13-.01.16-.13.26-.21.38Z"/>
        <path class="cls-1" d="M20.07,62.57c-.15-.03-.29-.08-.39-.19.14.05.29.08.39.19Z"/>
        <path class="cls-4" d="M47.2,62.16c-.11.12-.26.16-.41.21.12-.11.26-.15.41-.21Z"/>
        <path class="cls-1" d="M28.04,64.94c-.14.03-.27.05-.38-.06.13,0,.26.01.38.06Z"/>
        <path class="cls-1" d="M17.07,5.42c.09-.11.22-.16.35-.21-.09.11-.21.18-.35.21Z"/>
        <path class="cls-1" d="M42.38,2.4c.13,0,.25.05.36.12-.13,0-.26-.03-.36-.12Z"/>
        <path class="cls-1" d="M41.98,2.27c.12.04.25.03.35.12-.13,0-.26-.01-.35-.12Z"/>
        <path class="cls-1" d="M27.6,64.88c-.13.03-.26-.02-.38-.07.14-.04.26.02.38.07Z"/>
        <path class="cls-4" d="M40.54,64.52c-.09.08-.2.09-.32.08.1-.06.2-.1.32-.08Z"/>
        <path class="cls-4" d="M50.87,60.08c-.06.11-.16.15-.28.18.07-.1.17-.14.28-.18Z"/>
        <path class="cls-1" d="M37.36,1.33c.11-.01.22,0,.32.06-.12.03-.22.02-.32-.06Z"/>
        <path class="cls-1" d="M38.21,1.47c.11,0,.22-.02.32.05-.11.02-.22.02-.32-.05Z"/>
        <path class="cls-1" d="M24.83,56.23c.05-.11.15-.17.25-.22,0,0,0,0,0,0-.06.1-.15.16-.25.22,0,0,0,0-.01-.01Z"/>
        <path class="cls-4" d="M48.61,61.44c-.07.1-.18.14-.29.16.08-.08.18-.13.29-.16Z"/>
        <path class="cls-4" d="M39.88,64.67c-.08.08-.17.1-.28.06.09-.05.18-.07.28-.06Z"/>
        <path class="cls-1" d="M35.8,1.18c.1-.03.19-.04.28.01-.1.03-.19.04-.28-.01Z"/>
        <path class="cls-1" d="M29.92,1.24c.09-.09.19-.05.3-.04-.09.09-.19.04-.3.04Z"/>
        <path class="cls-1" d="M36.2,1.21c.1-.02.2-.05.29.03-.1,0-.2.03-.29-.03Z"/>
        <path class="cls-4" d="M51.59,59.61c-.06.09-.15.15-.26.18.06-.09.15-.15.26-.18Z"/>
        <path class="cls-1" d="M37.77,1.4c.1,0,.21,0,.3.06-.11.02-.21.02-.3-.06Z"/>
        <path class="cls-1" d="M28.38,65.01c-.11.04-.2.01-.29-.06.1-.01.2,0,.29.06Z"/>
        <path class="cls-1" d="M38.74,1.54c.1-.02.2,0,.29.06-.1,0-.2.02-.29-.06Z"/>
        <path class="cls-1" d="M30.36,1.19c.09-.05.19-.04.28-.01-.09.06-.19.04-.28.01Z"/>
        <path class="cls-1" d="M20.41,62.71c-.11.01-.19-.05-.26-.12.1.01.19.04.26.12Z"/>
        <path class="cls-4" d="M45.94,62.73c-.06.09-.16.11-.26.13.07-.07.15-.13.26-.13Z"/>
        <path class="cls-21" d="M1.68,39.41c-.08-.07-.09-.15-.06-.25.05.08.06.16.06.25Z"/>
        <path class="cls-4" d="M38.31,64.96c-.07.09-.15.09-.25.05.08-.04.16-.05.25-.05Z"/>
        <path class="cls-1" d="M29.35,1.3c.08-.08.17-.04.27-.04-.08.09-.17.05-.27.04Z"/>
        <path class="cls-1" d="M27.73,1.54c.08-.06.16-.07.26-.05-.07.07-.17.06-.26.05Z"/>
        <path class="cls-1" d="M40.44,1.89c.1-.01.19,0,.27.06-.1,0-.19,0-.27-.06Z"/>
        <path class="cls-1" d="M25.15,59.91s-.02.03-.03.04c-.08-.03-.14-.09-.19-.15h0c.09,0,.15.06.22.12Z"/>
        <path class="cls-4" d="M41.07,64.39c-.06.09-.13.1-.22.06.07-.04.14-.06.22-.06Z"/>
        <path class="cls-4" d="M48.08,61.72c-.05.09-.15.1-.23.13.05-.09.14-.11.23-.13Z"/>
        <path class="cls-1" d="M41.1,2.04c.08-.01.16,0,.22.06-.09.02-.16,0-.22-.06Z"/>
        <path class="cls-1" d="M25.84,64.51c-.09.04-.17.02-.23-.06.08,0,.16.01.23.06Z"/>
        <path class="cls-4" d="M54.07,57.69c-.03.09-.11.12-.19.15.03-.09.1-.13.19-.15Z"/>
        <path class="cls-1" d="M16.77,60.85c-.09-.01-.16-.06-.2-.13.1,0,.15.06.2.13Z"/>
        <path class="cls-4" d="M46.76,62.37c-.05.09-.14.09-.23.11.07-.06.14-.1.23-.11Z"/>
        <path class="cls-4" d="M52.88,58.66c-.04.08-.11.13-.19.15.04-.09.11-.13.19-.15Z"/>
        <path class="cls-1" d="M16.3,60.56c-.09-.01-.16-.06-.2-.14.09.01.16.06.2.14Z"/>
        <path class="cls-4" d="M51.22,59.86c-.04.09-.11.13-.2.14.05-.07.12-.11.2-.14Z"/>
        <path class="cls-4" d="M53.8,57.92c-.03.07-.08.13-.16.14.03-.07.08-.13.16-.14Z"/>
        <path class="cls-4" d="M42.64,63.95c-.05.07-.11.09-.19.06.05-.05.11-.07.19-.06Z"/>
        <path class="cls-4" d="M40.79,64.46c-.05.06-.11.09-.19.05.05-.05.12-.07.19-.05Z"/>
        <path class="cls-1" d="M23.55,56.23s-.02.03-.04.04c-.05-.05-.11-.1-.16-.15,0,0,.01-.02.02-.02.08.02.13.07.18.13Z"/>
        <path class="cls-4" d="M39.54,64.74c-.05.06-.11.09-.19.05.05-.05.11-.07.19-.05Z"/>
        <path class="cls-1" d="M45.69,59.48c-.07-.04-.1-.11-.13-.19,0,0,0,0,.01-.01.07.05.12.11.12.2h0Z"/>
        <path class="cls-1" d="M39.9,1.76c.07-.01.14.01.19.06-.08.03-.14,0-.19-.06Z"/>
        <path class="cls-4" d="M40.16,64.61c-.05.06-.11.08-.19.05.06-.04.12-.07.19-.05Z"/>
        <path class="cls-4" d="M49.99,60.65c-.04.08-.12.09-.19.12.04-.08.11-.1.19-.12Z"/>
        <path class="cls-1" d="M45.94,59.85c-.06-.05-.1-.11-.13-.19,0,0,.01,0,.02-.01.07.05.12.11.12.19h0Z"/>
        <path class="cls-1" d="M16.85,5.54c.04-.07.12-.1.2-.11-.04.08-.11.1-.2.11Z"/>
        <path class="cls-4" d="M44.34,63.38c-.03.06-.08.1-.16.06.04-.04.09-.07.16-.06Z"/>
        <path class="cls-4" d="M52.32,59.08c-.02.07-.09.09-.15.11.03-.07.09-.1.15-.11Z"/>
        <path class="cls-4" d="M52.63,58.85c-.02.08-.09.1-.16.12.04-.07.09-.1.16-.12Z"/>
        <path class="cls-1" d="M15.92,60.31c-.08,0-.14-.04-.17-.11.08,0,.13.05.17.11Z"/>
        <path class="cls-1" d="M40.22,1.83c.06-.01.12,0,.16.05-.07.04-.13.02-.16-.05Z"/>
        <path class="cls-4" d="M44.56,63.3s-.1.06-.16.06c.03-.07.09-.09.16-.06Z"/>
        <path class="cls-1" d="M28.22,1.46c.05-.06.11-.05.17-.03-.05.07-.11.05-.17.03Z"/>
        <path class="cls-1" d="M29.14,1.32s.1-.04.16-.01c-.05.05-.1.04-.16.01Z"/>
        <path class="cls-1" d="M36.55,1.24c.08-.03.15,0,.22.01-.08.03-.15.04-.22-.01Z"/>
        <path class="cls-1" d="M29.67,1.26s.1-.04.16-.01c-.05.04-.1.04-.16.01Z"/>
        <path class="cls-4" d="M49.46,60.96c-.03.07-.09.08-.15.09.03-.07.09-.08.15-.09Z"/>
        <path class="cls-4" d="M54.33,57.47c-.01.06-.05.09-.11.09.02-.05.05-.08.11-.09Z"/>
        <path class="cls-1" d="M45.81,59.67s-.08-.07-.09-.13h0c.08,0,.09.06.1.12,0,0-.01,0-.02.01Z"/>
        <path class="cls-4" d="M50.59,60.27c-.02.06-.07.08-.13.08.02-.06.07-.08.13-.08Z"/>
        <path class="cls-4" d="M50.24,60.49c-.02.06-.07.08-.13.08.02-.06.07-.08.13-.08Z"/>
        <path class="cls-4" d="M49.77,60.78s-.08.07-.13.07c.02-.06.07-.08.13-.07Z"/>
        <path class="cls-1" d="M16.99,60.97c-.06,0-.11-.02-.13-.08.06,0,.11.02.13.08Z"/>
        <path class="cls-4" d="M42.83,63.89s-.06.08-.13.05c.04-.03.07-.06.13-.05Z"/>
        <path class="cls-1" d="M24.89,59.73s-.08-.05-.09-.1c0,0,.01,0,.02-.01.04.02.08.05.09.1,0,0,0,0-.01,0Z"/>
        <path class="cls-4" d="M54.58,57.26s-.05.08-.1.08c.01-.05.04-.08.1-.08Z"/>
        <path class="cls-1" d="M20.57,62.79c-.06.02-.09-.02-.11-.06.06-.02.09.01.11.06Z"/>
        <path class="cls-4" d="M49.11,61.16c-.02.05-.05.08-.11.07.03-.04.05-.08.11-.07Z"/>
        <path class="cls-4" d="M51.85,59.42c-.01.05-.05.08-.1.08.02-.04.05-.08.1-.08Z"/>
        <path class="cls-4" d="M49.62,60.87c-.02.06-.05.08-.11.07.03-.04.06-.08.11-.07Z"/>
        <path class="cls-4" d="M53.2,58.41c-.01.05-.05.08-.1.08.02-.05.05-.08.1-.08Z"/>
        <path class="cls-1" d="M14.92,59.65c-.06,0-.09-.02-.11-.07.06,0,.09.03.11.07Z"/>
        <path class="cls-1" d="M45.5,59.2s0-.03,0-.04c.04.03.06.07.07.12,0,0,0,0-.01.01-.03-.02-.05-.05-.06-.09Z"/>
        <path class="cls-1" d="M29.3,56.16s0,.03,0,.05c-.03-.03-.06-.06-.09-.09,0,0,.01-.02.02-.02.03.01.07.02.08.06Z"/>
        <path class="cls-1" d="M47.3,56.07s.09.03.12.07c0,0-.01.01-.02.02-.05,0-.09-.03-.12-.07,0,0,0,0,.01-.01Z"/>
        <path class="cls-1" d="M47.48,56.2s0,.03,0,.04c-.04-.02-.06-.05-.07-.08,0,0,.01-.01.02-.02.03.01.05.03.06.06Z"/>
        <path class="cls-1" d="M15.22,59.86s-.08-.02-.09-.06c.05,0,.08.02.09.06Z"/>
        <path class="cls-1" d="M40.88,1.99s.07-.01.1.02c-.04.03-.07,0-.1-.02Z"/>
        <path class="cls-4" d="M51.72,59.51s-.03.05-.07.05c.01-.03.03-.05.07-.05Z"/>
        <path class="cls-1" d="M15.11,59.78s-.06-.01-.07-.05c.04,0,.06.02.07.05Z"/>
        <path class="cls-4" d="M48.89,61.29s-.04.04-.07.04c.01-.03.04-.05.07-.04Z"/>
        <path class="cls-4" d="M51.31,59.8s-.03.05-.07.05c.01-.03.03-.05.07-.05Z"/>
        <path class="cls-1" d="M46.03,59.98s-.05-.03-.06-.07c0,0,0,0,0,0,.04,0,.06.03.06.06h0Z"/>
        <path class="cls-1" d="M18.72,61.91s-.06-.01-.07-.05c.04,0,.06.01.07.05Z"/>
        <path class="cls-4" d="M53.07,58.51s-.03.05-.06.06c.01-.03.02-.06.06-.06Z"/>
        <path class="cls-1" d="M16.4,60.62s-.06-.01-.07-.05c.03,0,.06.02.07.05Z"/>
        <path class="cls-4" d="M50.09,60.58s-.03.05-.07.05c.01-.03.03-.05.07-.05Z"/>
        <path class="cls-1" d="M33.16,56.77s-.02.06-.06.06c0-.04.02-.06.06-.06Z"/>
        <path class="cls-4" d="M48.2,61.66s-.04.05-.07.04c.01-.03.04-.05.07-.04Z"/>
        <path class="cls-1" d="M17.15,61.07s-.06-.02-.07-.05c.04,0,.06.02.07.05Z"/>
        <path class="cls-1" d="M20.73,62.85s-.06,0-.07-.04c.03,0,.06.01.07.04Z"/>
        <path class="cls-4" d="M53.54,58.13s-.03.05-.06.06c0-.04.03-.05.06-.06Z"/>
        <path class="cls-4" d="M48.74,61.37s-.04.05-.07.05c.01-.03.03-.05.07-.05Z"/>
        <path class="cls-4" d="M52.07,59.27s-.04.05-.07.04c.01-.03.04-.05.07-.04Z"/>
        <path class="cls-4" d="M49.24,61.09s-.03.05-.07.05c.01-.03.03-.05.07-.05Z"/>
        <path class="cls-1" d="M40.76,1.97s.04-.02.06,0c-.02.02-.04.02-.06,0Z"/>
        <path class="cls-1" d="M39.78,1.75s.04-.02.06,0c-.02.02-.04.02-.06,0Z"/>
        <path class="cls-1" d="M45.97,59.92s-.02-.04-.03-.06c0,0,0,0,0,0,.02.02.03.04.03.06h0Z"/>
        <path class="cls-1" d="M46.06,60.01s0,.02,0,.04c-.03-.01-.03-.04-.03-.06,0,0,0,0,0,0,0,.01.02.02.03.03Z"/>
        <path class="cls-1" d="M33.1,56.84s0,.05-.03.06c0-.03,0-.05.03-.06Z"/>
        <path class="cls-1" d="M33.19,56.71s0,.05-.03.06c0-.03,0-.05.03-.06Z"/>
        <path class="cls-1" d="M24.93,59.79s-.02-.04-.04-.06c0,0,0,0,.01,0,.01.02.02.04.03.06,0,0,0,0,0,0Z"/>
        <path class="cls-1" d="M45.72,59.54s-.02-.04-.03-.06c0,0,0,0,0,0,.03.01.03.04.03.06h0Z"/>
        <path class="cls-4" d="M53.82,57.89s0,0-.01.01c0,0,0-.01,0-.01h.01Z"/>
        <path class="cls-4" d="M49.3,61.06s-.02.01-.03.02c0,0,.02-.01.03-.02Z"/>
        <path class="cls-4" d="M48.8,61.35s-.01.01-.02.01c0-.01.01-.02.02-.01Z"/>
        <path class="cls-14" d="M42.7,30.43c-.02.33-.04.67-.06,1,0,.02,0,.04,0,.06-.03.23-.05.46-.08.69-.03.02-.02.04-.02.07,0,.04-.01.09-.02.13-.02.01-.02.03-.01.05-.03.06-.05.12-.04.19-.06.05-.02.13-.06.19,0,.03,0,.06,0,.09-.08.11-.07.24-.12.36,0,.02,0,.04,0,.05-.01.02-.02.04-.04.06-.11.3-.22.6-.33.91-.06.12-.12.23-.17.35-.02.06-.08.11-.08.18-.06.02-.05.08-.06.13-.07.05-.08.14-.12.21-.05.03-.07.08-.09.14-.05.07-.1.14-.15.22-.55.92-1.25,1.7-2.07,2.37-.91.74-1.93,1.3-3.05,1.66-.34.11-.69.22-1.05.26,0-.03-.01-.07-.06-.06-.05,0-.1.03-.09.09-.08.05-.17.05-.25.04,0-.06.08-.05.07-.12-.08.02-.2-.01-.19.14-.04.02-.08.03-.13.02.04-.07.05-.16.14-.19.18-.05.36-.13.54-.17.31-.07.57-.25.86-.36.32-.12.6-.34.9-.53.52-.34.99-.75,1.42-1.2.26-.27.5-.57.73-.87.18-.22.31-.48.47-.72.26-.4.44-.84.62-1.27.2-.48.33-.98.43-1.49.07-.37.1-.75.1-1.12,0-1.88,0-3.76,0-5.64,0-.23,0-.24-.24-.24-4.8,0-9.61,0-14.41,0q-.24,0-.24.23c0,1.75.01,3.51,0,5.26,0,.67.09,1.33.21,1.98.09.46.26.91.44,1.34.16.39.37.76.6,1.11.28.43.57.86.92,1.24.39.43.8.83,1.26,1.16.49.35,1,.67,1.57.89.37.14.71.35,1.11.38.04,0,.09,0,.09.06-.07.04-.21-.09-.23.09-.11,0-.22,0-.31-.07,0-.01.05,0,.03-.05-.01.02-.02.04-.03.05-.07.04-.14,0-.21-.02-.53-.11-1.04-.27-1.54-.47-1.28-.5-2.38-1.27-3.32-2.26-.15-.16-.31-.33-.46-.49,0,0-.02-.02-.03-.03-.04-.05-.06-.13-.13-.16-.01-.03-.03-.06-.06-.07h0c-.21-.3-.42-.61-.63-.91h0c-.01-.05-.02-.1-.07-.13h0s-.01-.02-.01-.02c-.02-.05-.03-.1-.08-.14,0,0,0-.02,0-.02,0-.02,0-.03-.03-.04,0,0,0,0,0,0-.02-.05-.04-.09-.06-.14-.18-.33-.34-.67-.47-1.02-.21-.58-.38-1.17-.48-1.78-.06-.36-.12-.72-.12-1.08,0-1.44,0-2.89-.01-4.33,0-.48,0-.96,0-1.44,0-.03.04-.04.07-.06.06,0,.11.01.17.01,1.32,0,2.64,0,3.96,0,4.86,0,9.72,0,14.59,0,.06,0,.13-.02.19.03,0,.84,0,1.69,0,2.54,0,.71,0,1.41,0,2.12v.22c0,.1,0,.19,0,.29Z"/>
        <path class="cls-2" d="M29.23,14.34c.03.22.01.44.01.66,0,2.14,0,4.28,0,6.42,0,.31,0,.3-.31.3-.45,0-.91,0-1.36,0-.07,0-.15,0-.22-.01.03-.08.03-.16.04-.25.02-2.43-.03-4.86.02-7.29,0-.27.04-.53.19-.76.02-.03.02-.06.04-.09.05,0,.11.06.16,0,.35-.01.68.07.97.28.23.17.46.34.42.68,0,.04.02.06.05.07Z"/>
        <path class="cls-2" d="M37.22,21.67s-.01-.02-.02-.03c0-.13.01-.25.02-.38.06-.02.05-.07.05-.12,0-.3,0-.59,0-.89,0-.05,0-.1-.05-.12,0-.02,0-.04,0-.06.06-.02.05-.07.05-.12,0-.32,0-.63,0-.95,0-.05,0-.1-.05-.12-.02-.09-.02-.19,0-.28.07-.05.07-.1,0-.16-.02-.27-.02-.55,0-.82.07-.11.07-.42,0-.53-.02-.07-.02-.15,0-.22.04-.02.05-.05.05-.09,0-.18,0-.36,0-.54,0-.04-.01-.07-.05-.09-.02-.21-.02-.42,0-.63.01-.01.04-.03.04-.04.01-.24.02-.49,0-.73,0-.02-.03-.03-.04-.04-.05-.16-.02-.31,0-.47.07-.02.05-.08.07-.13.03-.09.05-.18.12-.25.34-.36.74-.56,1.25-.53.06.05.12.02.18.01.09-.02.18-.01.23.08-.05.01-.11-.01-.15.04.16.36.14.75.14,1.13,0,2.18,0,4.36,0,6.54,0,.17-.07.39.03.5.11.12.34.03.51.05.06,0,.13-.02.18.03-.36,0-.72,0-1.08,0-.21-.01-.41-.05-.62-.04-.29,0-.57,0-.86,0Z"/>
        <path class="cls-10" d="M32.68,47.48c.44,0,.88,0,1.32,0,0,.14,0,.27,0,.41-.03,1.92.03,3.83-.03,5.75-.04.01-.08.03-.12.03-.43,0-.87,0-1.3,0-.1,0-.12-.05-.12-.14-.02-.27.05-.54.03-.81-.02-.24-.03-.48-.03-.72,0-.63,0-1.26,0-1.89,0-.82-.02-1.64.03-2.46,0-.1.03-.15.13-.14.03,0,.06-.02.09-.03Z"/>
        <path class="cls-4" d="M29.32,39.85s.07.02.1.03c.07.07.15.09.24.1.03,0,.07.02.1.03.19.11.4.19.62.2.02,0,.04.01.07.02.04.05.09.07.15.04.02,0,.05,0,.07.01.05.06.11.07.18.05.02,0,.04.01.07.02.02.04.06.04.1.03.02,0,.04,0,.06,0,.01.03.03.03.05,0,.03,0,.07.01.1.02.08.05.16.08.25.05.02,0,.05,0,.07.01.1.06.2.08.31.05.04,0,.09.01.13.02.06.06.13.04.2.03.05,0,.1,0,.15.01,0,0,.02.02.03.03-.05.05-.11.04-.16.03-.31-.02-.61-.06-.91-.12-.43-.09-.87-.16-1.28-.33-.15-.06-.32-.08-.5-.16.03.11.08.13.13.14.1,0,.18.06.27.08.11.03.22.13.21.24,0,.13-.15.09-.24.1-.04,0-.08,0-.13,0-.04,0-.08.03-.07.09.05.02.12.02.11.1-.08-.01-.15-.05-.23-.04,0,.02-.02.04-.02.06.04.81-.09,1.62,0,2.43.03.3.06.59.15.88.13.42.31.81.56,1.18.32.48.74.85,1.22,1.16.27.17.61.2.84.44-.44.02-.86-.06-1.28-.19-.81-.25-1.46-.75-1.97-1.41-.45-.59-.71-1.27-.77-2.02-.06-.75-.02-1.51-.03-2.26,0-.49-.02-.97.01-1.46.07.08.03.18.04.27,0,.06-.02.13.03.18.07.06.06.13.06.2-.02.31-.01.61,0,.92,0,.05-.02.1.07.16-.03-.43,0-.84.08-1.23.02-.1.03-.15.15-.13.17.04.34.09.53.05-.05-.1-.13-.14-.23-.16-.07-.01-.11-.03-.09-.11.1,0,.17.09.27.1,0,0,0,.01,0,.01.03.03.07.05.12.06Z"/>
        <path class="cls-22" d="M42.7,29.92c0-.71,0-1.41,0-2.12,0-.85,0-1.69,0-2.54-.06-.05-.13-.03-.19-.03-4.86,0-9.72,0-14.59,0-1.32,0-2.64,0-3.96,0-.06,0-.11,0-.17-.01-.03-.24.12-.27.31-.28.11,0,.22-.02.33,0,.04,0,.09.02.12.01.18-.04.36-.08.55-.06.03,0,.05-.01.05-.05-.03-.06-.09-.04-.14-.04-.48,0-.97,0-1.45,0-.08,0-.17.02-.19-.09.5,0,.99.02,1.49.02,5.25.01,10.5,0,15.75,0,.24,0,.49,0,.73-.01.41-.01.81,0,1.22-.01,0,.03,0,.06,0,.09h-3.89c.13.19.3.08.41.17-.29.02-.58.01-.89.08.1.1.2.07.28.06.16-.03.32-.01.48-.02.07,0,.14.02.22.02.2-.02.41-.11.61.03.03.02.08.01.12.01.23,0,.46.01.69-.03.06-.01.11-.03.15-.09.09-.15.35-.15.44,0,.03.05.07.06.12.06.07,0,.14,0,.2,0,.11,0,.24.04.26-.14,0-.03.04-.05.08-.05.15,0,.3-.04.44.06-.01.03-.05.05-.04.1.05.04.11.02.16.02.24,0,.35.11.35.36,0,1.43,0,2.86,0,4.29,0,.07.04.15-.06.19Z"/>
        <path class="cls-4" d="M34.66,40.5s.07-.01.1-.02c.03.03.06.02.09-.01.04,0,.09-.01.13-.02.02.03.04.02.06,0,.03,0,.07-.01.1-.02.04.03.06.03.09-.02.02,0,.05-.01.07-.02.03.03.06.03.09-.01.02,0,.05-.01.07-.02.03.03.04.02.06-.01.02,0,.05-.01.07-.02.07.03.13,0,.18-.05.02,0,.05-.01.07-.02.06.02.11,0,.15-.05.02,0,.04-.01.06-.02.01.01.02.01.03,0,.72-.22,1.41-.52,2.1-.89,0,.09,0,.16,0,.23,0,1.13,0,2.26,0,3.39,0,.64-.17,1.26-.48,1.82,0,.02,0,.04-.01.06-.07.1-.13.21-.2.31,0,.01-.02.02-.02.03-.14.17-.28.34-.42.51,0,0,0,0,0,0-.07.07-.14.13-.2.2,0,0,0,0,0,0-.5.42-1.06.74-1.71.89-.37.09-.74.13-1.12.11.01-.11.08-.17.19-.18.25-.01.47-.12.68-.24.21-.12.4-.25.59-.4.55-.45.93-1.03,1.18-1.68.22-.56.27-1.16.28-1.75.01-.59,0-1.18,0-1.77,0-.09-.03-.14-.13-.13-.01-.16-.21-.11-.28-.23.1-.03.18-.07.19-.19,0-.07.07-.09.13-.08.07,0,.12.04.13.11,0,.04-.03.08.03.13.09-.07.2.03.3-.02.21-.11.45-.14.68-.19.05-.01.1-.01.1-.07,0-.23.06-.47-.09-.67-.07,0-.11.03-.15.05-.4.24-.83.41-1.27.56-.49.17-1,.33-1.52.4-.4.06-.79.16-1.2.14-.06,0-.12.01-.16-.04,0-.01,0-.02,0-.03.2-.01.4-.03.6-.04.06.02.13.04.18-.03.03,0,.07,0,.1-.01.03.03.06.03.09,0Z"/>
        <path class="cls-15" d="M44.59,22.68s0,.01,0,.02c.03.08.08.14.15.19,0,0,0,0,0,0,.04.12.09.25.13.37,0,.02,0,.04,0,.07,0,.22-.03.44-.11.65-.06.16-.2.26-.28.41,0,0,0,0,0,0-.21.1-.41.24-.65.26-.03,0-.07,0-.1,0-.41,0-.83,0-1.24,0-1.06,0-2.12,0-3.19,0-.53,0-1.07,0-1.6,0,.05-.05.12-.03.18-.03.88,0,1.77,0,2.65,0,.06,0,.13.02.18-.02,0-.01.01-.02,0-.03-.03-.27-.04-.37.28-.36.06,0,.1-.03.11-.09.04-.17.1-.33.12-.5.05-.35.09-.69-.16-1-.07-.08-.12-.18-.15-.29,1.02,0,2.04-.03,3.05.03.03,0,.06,0,.09,0,.03.01.06.02.09.04.02.01.05.02.07.03,0,0,0,0,0,0,.03.05.07.08.13.09,0,0,0,0,0,0,.01.03.03.04.06.04,0,0,0,0,0,0,.01.03.04.05.07.06,0,0,0,0,0,0,.01.01.02.02.03.03,0,0,0,0,.02,0,.01.01.03.03.04.04Z"/>
        <path class="cls-15" d="M21.81,22.76s.09-.09.14-.14c.21-.13.43-.27.68-.3.11,0,.22,0,.33,0,.84,0,1.67,0,2.51,0,0,.07-.03.13-.07.18-.21.24-.31.51-.31.84,0,.15.06.28.08.43.03.27.17.48.37.66.06.05.12.12.12.21-.16.05-.33.02-.5.02-.5-.01-.99-.02-1.49,0-.04-.03-.08-.03-.12,0-.05,0-.09,0-.14,0-.26-.05-.52-.04-.78,0-.05,0-.1,0-.15-.01-.08-.06-.17-.08-.26-.11-.43-.17-.73-.73-.64-1.19.04-.21.15-.39.22-.58Z"/>
        <path class="cls-23" d="M27.63,13.31s-.02.06-.04.09c-.15.23-.18.48-.19.76-.06,2.43,0,4.86-.02,7.29,0,.08,0,.17-.04.25-.29,0-.59.01-.88.02-.02,0-.05-.02-.07-.02,0-.1,0-.2,0-.3.03-.26.04-.51,0-.77,0-.05,0-.09,0-.14.04-.35.03-.7,0-1.05v-.05c.03-.27.04-.54,0-.8,0-.1,0-.2,0-.3.04-.64.04-1.29,0-1.93,0-.09,0-.18,0-.26.05-.22.01-.44.02-.67,0-.12.03-.24-.02-.35,0-.15-.02-.29.01-.44,0-.06,0-.11.01-.17.03-.19.02-.38.17-.53.3-.29.62-.55,1.05-.61Z"/>
        <path class="cls-16" d="M39.78,21.69c-.05-.05-.12-.02-.18-.03-.17-.02-.4.08-.51-.05-.1-.11-.03-.33-.03-.5,0-2.18,0-4.36,0-6.54,0-.38.01-.77-.14-1.13.04-.05.1-.03.15-.04.06,0,.11.02.16.04.29.14.51.36.72.6.05.15.06.3.06.46,0,2.29,0,4.58,0,6.87,0,.08-.02.16.03.23-.04.16-.16.08-.26.09Z"/>
        <path class="cls-8" d="M34.01,47.89c0-.14,0-.27,0-.41.28-.01.56-.01.84-.05.07-.01.11.02.12.08-.02.08,0,.17,0,.25,0,.09-.02.18.02.26,0,.04,0,.08,0,.11-.03.04-.03.07,0,.11,0,.09,0,.18,0,.27-.03.05-.02.11-.02.17,0,1.31,0,2.61,0,3.92,0,.06,0,.12.02.17,0,.09,0,.18,0,.27-.03.06-.03.11,0,.17-.02.14-.03.29,0,.43-.03.07-.09.06-.15.06-1.06,0-2.12,0-3.19,0-.15,0-.14-.09-.14-.18,0-1.59,0-3.18,0-4.77,0-.39,0-.77,0-1.16,0-.18.02-.19.19-.16.33.06.67.04,1,.05-.03,0-.06.03-.09.03-.11,0-.13.05-.13.14-.05.82-.02,1.64-.03,2.46,0,.63,0,1.26,0,1.89,0,.24.01.48.03.72.02.27-.05.54-.03.81,0,.09.02.14.12.14.43,0,.87,0,1.3,0,.04,0,.08-.02.12-.03.24.02.48-.04.72-.03.12,0,.16-.04.16-.16,0-1.76,0-3.52,0-5.27,0-.05.03-.11-.04-.14q-.14.2-.39.2s-.01,0-.02,0c-.11.01-.17-.03-.18-.14-.02-.12-.08-.21-.21-.2ZM34.42,47.68c.04.07.11.05.16.08.05.04.1.08.15.1.05.03.1.03.14-.03.02-.04.03-.08,0-.12-.05-.05-.36-.08-.44-.04Z"/>
        <path class="cls-21" d="M33.69,40.63s.11.03.16.04c.41.02.8-.09,1.2-.14.52-.07,1.02-.23,1.52-.4.44-.15.87-.32,1.27-.56.04-.03.09-.06.15-.05.15.21.09.44.09.67,0,.06-.05.06-.1.07-.23.05-.47.08-.68.19-.1.05-.21-.05-.3.02-.06-.05-.02-.09-.03-.13-.02-.07-.07-.11-.13-.11-.06,0-.13.02-.13.08,0,.12-.09.15-.19.19.07.12.26.06.28.23-.31.09-.63.18-.95.27-.64.17-1.3.25-1.96.29-.42.03-.85.05-1.28,0-.4-.04-.8-.07-1.19-.12-.19-.02-.37-.09-.56-.13-.36-.07-.71-.17-1.06-.28,0-.08-.06-.08-.11-.1,0-.06.03-.08.07-.09.04,0,.08,0,.13,0,.09,0,.24.03.24-.1,0-.11-.1-.21-.21-.24-.09-.03-.17-.08-.27-.08-.05,0-.1-.03-.13-.14.18.09.35.1.5.16.41.17.85.23,1.28.33.3.06.6.1.91.12.06,0,.12.01.16-.03.02,0,.04,0,.06,0,.04.04.08.03.1-.02.05,0,.1,0,.15,0,0,.01,0,.03,0,.04,0,.05.04.07.09.07.21,0,.42.05.62.02.06,0,.14,0,.17-.09.04,0,.08,0,.12,0Z"/>
        <path class="cls-19" d="M34.45,39.91s.09,0,.13-.02c.04,0,.08,0,.12-.02.09,0,.18,0,.25-.04.05,0,.11,0,.16-.03.36-.04.7-.15,1.05-.26,1.12-.36,2.14-.92,3.05-1.66.82-.67,1.53-1.45,2.07-2.37.04-.08.1-.15.15-.22.02.01.04.02.06.03-.02.12-.07.21-.17.28-.08.06-.12.16-.17.24-.22.37-.51.68-.76,1.02-.14.19-.34.33-.51.51-.17.18-.39.3-.52.53-.04.08-.22.11-.32.19-.36.29-.76.54-1.16.77-.44.25-.91.46-1.39.64-.42.17-.85.28-1.29.37-.49.1-.99.19-1.5.18-.38,0-.76.02-1.15,0-.62-.04-1.23-.1-1.83-.3-.24-.08-.51-.1-.75-.21-.54-.24-1.11-.44-1.61-.77-.17-.11-.35-.18-.49-.35-.05-.06-.15,0-.21-.07-.4-.43-.94-.71-1.3-1.18-.05-.06-.1-.1-.17-.14-.19-.1-.24-.29-.3-.48.15.16.3.33.46.49.94,1,2.04,1.76,3.32,2.26.5.2,1.01.36,1.54.47.07.01.14.05.21.02,0,0,0,0,0,0,.09.07.2.06.31.07.22.06.46.08.69.08.03.03.06.02.1.01.04.02.08.02.13.02.43.03.86.04,1.29-.02.17,0,.34-.02.5-.06Z"/>
        <path class="cls-11" d="M23.67,24.66c.5-.02.99-.01,1.49,0,.17,0,.33.03.5-.02.17,0,.34.05.51,0,.25,0,.5,0,.74.01.02,0,.03,0,.05.01.25-.04.5.02.74-.02.39,0,.77,0,1.16,0,.92,0,1.83.02,2.75,0,1.47-.01,2.94-.02,4.41,0,.07.02.14.02.21,0,.49,0,.97,0,1.46,0,.01,0,.03,0,.04-.01h0c.53,0,1.07,0,1.6,0,1.06,0,2.12,0,3.19,0,.41,0,.83,0,1.24,0,0,.02,0,.04,0,.05-.05,0-.1,0-.16,0-.12,0-.23,0-.35,0-.1,0-.21,0-.31,0-.06,0-.13,0-.19,0-.05,0-.1,0-.16,0-.41.01-.81,0-1.22.01-.24,0-.49.01-.73.01-5.25,0-10.5,0-15.75,0-.5,0-.99-.02-1.49-.02-.07,0-.15,0-.22,0-.11.03-.25-.07-.35.06-.06-.01-.12-.02-.19-.03,0-.02,0-.04,0-.06h0c.26-.01.52.02.78-.02.05,0,.09,0,.14,0,.04.03.08.03.12,0Z"/>
        <path class="cls-11" d="M44.09,22.35s-.06,0-.09,0c-.11-.07-.24-.06-.37-.06-.97,0-1.95,0-2.92,0-6.03,0-12.05,0-18.08,0-.04,0-.08,0-.13,0,.12-.05.25-.06.38-.06.65,0,1.3,0,1.95,0,6.2,0,12.41,0,18.61,0,.18,0,.36.03.54.06.04,0,.08.01.09.07Z"/>
        <path class="cls-22" d="M34,46.87c.38.02.75-.03,1.12-.11.64-.15,1.2-.47,1.71-.89,0,.15-.13.2-.22.27-.51.38-1.07.64-1.7.75-.27.05-.55.08-.82.09-.62.01-1.23.02-1.85,0-.56-.02-1.11-.13-1.63-.37-.29-.14-.54-.32-.8-.49-.31-.21-.57-.49-.8-.77-.19-.24-.32-.53-.46-.81-.17-.33-.24-.69-.33-1.04-.03-.12-.02-.26-.02-.38,0-1.23,0-2.46,0-3.69,0-.04,0-.06.04-.07,0,0,0,0,0,0,.04.03.02.08.05.12,0,.02,0,.04,0,.06-.03.49-.01.97-.01,1.46,0,.75-.04,1.51.03,2.26.06.75.33,1.43.77,2.02.5.66,1.15,1.16,1.97,1.41.42.13.84.21,1.28.19.04.02.08.02.12,0,.08.03.17.03.26,0,.08.02.17.02.25,0,.08.02.17.02.25,0,.08.02.17.02.25,0,.17.03.34.02.5,0,.02,0,.04,0,.06,0Z"/>
        <path class="cls-6" d="M42.3,24.96c-.14-.1-.29-.06-.44-.06-.03,0-.07.01-.08.05-.02.18-.15.14-.26.14-.07,0-.14,0-.2,0-.05,0-.09-.01-.12-.06-.1-.15-.36-.15-.44,0-.04.06-.08.08-.15.09-.23.04-.46.03-.69.03-.04,0-.09,0-.12-.01-.2-.14-.41-.05-.61-.03-.08,0-.14-.02-.22-.02-.16,0-.32-.01-.48.02-.08.02-.18.04-.28-.06.3-.06.59-.06.89-.08-.11-.09-.28.02-.41-.17h3.89s.07.03.12.06c-.13.09-.27.11-.41.1Z"/>
        <path class="cls-25" d="M38.65,13.31c-.5-.03-.91.17-1.25.53-.07.07-.08.17-.12.25-.02.05,0,.11-.07.13,0-.08,0-.17,0-.25,0-.01,0-.02,0-.03,0-.03.01-.06.02-.1.03-.08.06-.17.09-.25.31-.78,1.33-1.11,2.03-.64.24.16.46.35.57.64-.09-.02-.14-.1-.18-.16-.07-.13-.19-.22-.29-.32-.09-.09-.22-.04-.31-.12-.15-.14-.35-.14-.53-.17-.04,0-.1,0-.11.06.03.08.11.1.17.15.13.12.12.2-.03.28Z"/>
        <path class="cls-20" d="M27.63,13.31c-.43.06-.75.32-1.05.61-.15.15-.14.35-.17.53,0,.06,0,.11-.01.17-.01-.35-.02-.7.11-1.04.2-.4.49-.69.94-.8.05-.01.1-.01.15-.02.03.04.05.03.07-.01.08-.01.17-.02.25,0,.04.08.11.04.17.05,0,0,.01,0,.02,0,0,.07-.04.1-.1.14-.13.08-.24.19-.21.37-.05.05-.11,0-.16,0Z"/>
        <path class="cls-22" d="M23.73,25.28c0,.48,0,.96,0,1.44,0,1.44,0,2.89.01,4.33,0,.36.06.72.12,1.08.1.61.27,1.2.48,1.78.13.35.29.69.47,1.02.02.04.04.09.06.14-.17-.08-.21-.26-.29-.41-.14-.28-.26-.57-.37-.86-.09-.22-.13-.45-.22-.67-.12-.32-.17-.67-.25-1-.07-.28-.07-.58-.1-.87,0-.09.02-.18.02-.26,0-1.8,0-3.61,0-5.41,0-.06,0-.11-.01-.17-.01-.07,0-.11.07-.13Z"/>
        <path class="cls-25" d="M27.79,13.31c-.02-.18.08-.29.21-.37.06-.04.1-.06.1-.14.52.06.83.38,1.04.83.1.22.11.46.09.7-.03-.01-.06-.03-.05-.07.04-.34-.19-.51-.42-.68-.29-.21-.62-.29-.97-.28Z"/>
        <path class="cls-20" d="M38.65,13.31c.14-.09.15-.17.03-.28-.06-.05-.14-.07-.17-.15.01-.06.06-.07.11-.06.19.03.38.03.53.17.09.08.22.03.31.12.1.1.22.19.29.32.04.07.09.14.18.16.05.09.08.19.09.3-.02.05,0,.12-.07.15-.21-.24-.43-.46-.72-.6-.05-.03-.11-.03-.16-.04-.06-.09-.14-.09-.23-.08-.06.01-.12.04-.18-.01Z"/>
        <path class="cls-11" d="M37.21,13.97c0,.08,0,.17,0,.25-.02.16-.04.31,0,.47-.01.27-.01.55,0,.82-.02.21-.02.42,0,.63-.01.24-.01.48,0,.72-.02.07-.02.15,0,.22-.02.18-.02.35,0,.53-.02.27-.02.55,0,.82,0,.05,0,.1,0,.16-.02.1-.02.19,0,.28-.01.4-.01.79,0,1.19,0,.02,0,.04,0,.07,0,.04-.01.08-.02.13-.09-.05-.09-.14-.09-.22,0-1.98,0-3.96,0-5.93,0-.09.03-.16.05-.25.01-.06.04-.05.07-.01,0,.03-.01.06-.02.1,0,0-.01,0-.01,0,0,0,0,.02,0,.02Z"/>
        <path class="cls-3" d="M39.95,14.04c.07-.03.05-.1.07-.15.08.11.05.24.05.36,0,1.82,0,3.65,0,5.47,0,.57,0,1.14,0,1.71,0,.06.02.12-.03.16-.05-.07-.03-.15-.03-.23,0-2.29,0-4.58,0-6.87,0-.16,0-.31-.06-.46Z"/>
        <path class="cls-11" d="M26.5,13.59c-.13.34-.12.69-.11,1.04-.03.14,0,.29-.01.44,0,.34-.02.68,0,1.02,0,.09,0,.18,0,.26-.02.64-.02,1.29,0,1.93,0,.1,0,.2,0,.3-.02.27-.02.54,0,.8,0,.02,0,.03,0,.05-.02.35-.02.7,0,1.05,0,.05,0,.09,0,.14-.02.26-.02.51,0,.77,0,.1,0,.2,0,.3-.04,0-.06-.01-.06-.06,0-1.36.01-2.72.01-4.08,0-1.14,0-2.27,0-3.41,0-.16.04-.31.06-.46,0-.06.04-.08.09-.08Z"/>
        <path class="cls-11" d="M34.97,53.03c0-.09,0-.18,0-.27,0-.05.01-.09.01-.14,0-1.32,0-2.65,0-3.97,0-.05,0-.09-.01-.14,0-.09,0-.18,0-.27,0-.04,0-.07,0-.11,0-.04,0-.08,0-.11,0-.09.03-.18-.02-.26,0-.08-.01-.17,0-.25.02,0,.03,0,.05,0h0c0,1.95,0,3.9,0,5.85,0,.06,0,.13.02.19.01.06,0,.09-.07.09-.02-.14-.01-.29,0-.43.01-.06.01-.11,0-.17Z"/>
        <path class="cls-19" d="M21.81,22.76c-.07.19-.18.37-.22.58-.08.46.21,1.02.64,1.19.09.03.18.05.26.11-.06,0-.11-.02-.17-.02-.05-.01-.1-.02-.15-.03-.02-.04-.05-.06-.1-.07-.02-.04-.05-.06-.09-.06-.18-.17-.31-.37-.41-.6-.14-.33-.03-.86.24-1.1Z"/>
        <path class="cls-22" d="M29.2,39.78c-.1-.01-.17-.1-.27-.1h0c-.18-.15-.42-.18-.59-.34-.04-.03-.07,0-.1,0,0,0,0,0,0,0,.08-.14.19-.05.26-.01.2.11.4.21.61.3.06.03.1.08.1.15Z"/>
        <path class="cls-11" d="M37.22,21.25c0,.13-.01.25-.02.38-.05-.01-.06-.05-.06-.1,0-.35-.05-.7-.03-1.06,0-.06,0-.13.09-.13,0,.3.01.61.02.91Z"/>
        <path class="cls-25" d="M37.22,21.67c.29,0,.57,0,.86,0,.21,0,.41.03.62.04-.47,0-.93,0-1.4.01-.04,0-.08,0-.08-.05Z"/>
        <path class="cls-11" d="M44.49,24.39c.08-.14.22-.25.28-.41.09-.21.11-.43.11-.65.04.01.05.05.05.09,0,.33-.06.64-.3.89-.04.04-.07.09-.14.08Z"/>
        <path class="cls-22" d="M25.06,35.41c.21.3.42.61.63.91-.05,0-.09-.01-.11-.05-.13-.2-.32-.36-.41-.59-.04-.09-.15-.15-.11-.28Z"/>
        <path class="cls-25" d="M37.22,21.25c0-.3-.01-.61-.02-.91,0-.03,0-.06,0-.09,0-.04.01-.08.02-.13.06.02.05.07.05.12,0,.3,0,.59,0,.89,0,.05,0,.1-.05.12Z"/>
        <path class="cls-1" d="M32.69,40.63s0-.03,0-.04c.33,0,.67,0,1,0,0,.01,0,.02,0,.03-.04,0-.08,0-.12,0-.29,0-.58,0-.88,0Z"/>
        <path class="cls-19" d="M22.51,22.29s.08,0,.13,0c0,0,0,.02,0,.03-.26.04-.47.17-.68.3.01-.05.05-.08.09-.11.01,0,.02-.02.04-.03,0,0,.02,0,.03,0,0,0,.01,0,.01,0,0,0,0-.02,0-.02.14-.04.25-.15.41-.16Z"/>
        <path class="cls-22" d="M37.03,45.67c.14-.17.28-.34.42-.51-.02.22-.25.5-.42.51Z"/>
        <path class="cls-11" d="M43.84,24.65c.24-.03.44-.16.65-.26-.15.2-.36.28-.59.29-.02,0-.04-.02-.06-.03Z"/>
        <path class="cls-22" d="M41.77,34.63c.06-.12.12-.23.17-.35.13.14-.07.24-.04.36-.06.04-.09,0-.14,0Z"/>
        <path class="cls-1" d="M30.39,40.2c-.23,0-.43-.09-.62-.2.21.06.42.11.62.2Z"/>
        <path class="cls-22" d="M43.24,24.71c.12,0,.23,0,.35,0,0,.08-.05.1-.11.09-.08-.01-.2.05-.23-.09Z"/>
        <path class="cls-22" d="M22.83,24.77c.1-.13.23-.03.35-.06-.09.16-.22.09-.35.06Z"/>
        <path class="cls-22" d="M42.3,33.26c.05-.12.04-.25.12-.36.02.1.04.2,0,.3-.02.08-.06.09-.13.06Z"/>
        <path class="cls-22" d="M22.17,24.58c.05.01.1.02.15.03.01.05.05.06.1.06-.11.1-.2.08-.25-.06,0-.01,0-.02,0-.03Z"/>
        <path class="cls-22" d="M37.48,45.12c.07-.1.13-.21.2-.31,0,.15-.04.26-.2.31Z"/>
        <path class="cls-11" d="M44.87,23.26c-.04-.12-.09-.25-.13-.37.13.09.17.22.13.37Z"/>
        <path class="cls-1" d="M31.87,40.51c-.11.03-.21,0-.31-.05.11-.01.21.02.31.05Z"/>
        <path class="cls-22" d="M42.42,32.81c.04-.06,0-.14.06-.19.08.02.07.08.06.13-.01.07-.07.06-.12.06Z"/>
        <path class="cls-22" d="M42.7,30.43c0-.1,0-.19,0-.29.11.1.09.19,0,.29Z"/>
        <path class="cls-22" d="M36.82,45.87c.07-.07.14-.13.2-.2,0,.14-.08.19-.2.2Z"/>
        <path class="cls-22" d="M42.74,24.71c.06,0,.13,0,.19,0,0,.07-.05.09-.11.09-.06,0-.07-.04-.07-.09Z"/>
        <path class="cls-1" d="M29.67,39.97c-.09,0-.18-.03-.24-.1.09.01.17.04.24.1Z"/>
        <path class="cls-1" d="M31.49,40.45c-.09.04-.17,0-.25-.05.09,0,.17.02.25.05Z"/>
        <path class="cls-11" d="M44.74,22.89c-.07-.05-.12-.11-.15-.19.11.02.14.1.15.19Z"/>
        <path class="cls-22" d="M21.98,24.46s.07.02.09.06c0,.01,0,.02,0,.03-.03.02-.04.06-.09.05-.04-.05.01-.1,0-.14Z"/>
        <path class="cls-19" d="M25.75,36.39c.07.03.09.1.13.16-.07.01-.11-.03-.13-.09,0-.02,0-.05,0-.07Z"/>
        <path class="cls-22" d="M41.48,35.33s-.04-.02-.06-.03c.02-.05.04-.11.09-.14.03.06.06.12-.03.17Z"/>
        <path class="cls-22" d="M43.84,24.65s.04.02.06.03c-.04.09-.09.07-.16.03,0-.02,0-.04,0-.05.03,0,.07,0,.1,0Z"/>
        <path class="cls-11" d="M22.42,24.68s-.09,0-.1-.06c.06,0,.11.02.17.02.05,0,.1,0,.15.01,0,0,0,.02,0,.03,0,0,0,0,0,0-.05,0-.1,0-.16,0h-.06Z"/>
        <path class="cls-1" d="M34.48,40.52c-.05.07-.11.05-.18.03.06-.03.12-.03.18-.03Z"/>
        <path class="cls-1" d="M32.19,40.56c-.07,0-.14.04-.2-.03.07,0,.14,0,.2.03Z"/>
        <path class="cls-1" d="M30.86,40.32c-.07.02-.13,0-.18-.05.07,0,.13.02.18.05Z"/>
        <path class="cls-1" d="M35.76,40.28c-.05.05-.11.08-.18.05.06-.03.12-.05.18-.05Z"/>
        <path class="cls-22" d="M22.48,24.68c.05,0,.1,0,.16,0,0,.02,0,.04,0,.06-.06,0-.13.03-.16-.06Z"/>
        <path class="cls-22" d="M41.62,34.94s0-.1.06-.13c.08.09.02.12-.06.13Z"/>
        <path class="cls-1" d="M30.61,40.26c-.06.02-.11,0-.15-.04.06,0,.1.02.15.04Z"/>
        <path class="cls-1" d="M35.98,40.21c-.04.05-.09.07-.15.05.05-.03.1-.05.15-.05Z"/>
        <path class="cls-25" d="M28.08,12.8c-.06,0-.13.03-.17-.05.06,0,.13-.02.17.05Z"/>
        <path class="cls-11" d="M44.37,22.51c-.06-.01-.1-.04-.13-.09.07,0,.12.01.13.09Z"/>
        <path class="cls-22" d="M24.99,35.28c.05.03.06.08.07.13-.09-.01-.11-.06-.07-.13Z"/>
        <path class="cls-22" d="M24.9,35.13s.06.08.08.14c-.14.02-.06-.09-.08-.14Z"/>
        <path class="cls-22" d="M25.75,36.39s0,.05,0,.07c-.08-.02-.06-.08-.06-.13.03,0,.05.04.06.07Z"/>
        <path class="cls-1" d="M34.85,40.47s-.05.05-.09.01c.03-.02.06-.02.09-.01Z"/>
        <path class="cls-1" d="M35.23,40.41s-.05.05-.09.02c.03-.02.06-.02.09-.02Z"/>
        <path class="cls-4" d="M32.54,40.58s-.06.06-.1.02c0,0,0-.02,0-.03.03,0,.07,0,.1,0Z"/>
        <path class="cls-1" d="M35.39,40.37s-.05.04-.09.01c.03-.02.06-.02.09-.01Z"/>
        <path class="cls-1" d="M29.32,39.85s-.09-.02-.12-.06c.05,0,.09.01.12.06Z"/>
        <path class="cls-1" d="M31.03,40.37s-.08.01-.1-.03c.04-.02.07,0,.1.03Z"/>
        <path class="cls-1" d="M34.66,40.5s-.06.04-.09,0c.03-.01.06-.02.09,0Z"/>
        <path class="cls-11" d="M22.07,24.55s0-.02,0-.03c.04,0,.08.03.1.07,0,.01,0,.02,0,.03-.04,0-.06-.04-.09-.06Z"/>
        <path class="cls-1" d="M32.43,40.57s0,.02,0,.03c-.02,0-.04,0-.06,0,0,0-.02-.02-.03-.03.03,0,.06,0,.09,0Z"/>
        <path class="cls-22" d="M42.65,31.49s0-.04,0-.06c.01.01.03.02.04.03-.01.01-.03.02-.04.03Z"/>
        <path class="cls-25" d="M27.66,12.76s-.04.05-.07.01c.02,0,.05,0,.07-.01Z"/>
        <path class="cls-1" d="M31.14,40.39s-.04.02-.05,0c.02-.01.04,0,.05,0Z"/>
        <path class="cls-22" d="M42.55,32.25s0-.05.02-.07c.05.04.03.06-.02.07Z"/>
        <path class="cls-1" d="M35.04,40.44s-.03.04-.06,0c.02-.01.04-.02.06,0Z"/>
        <path class="cls-1" d="M35.51,40.34s-.03.04-.06.01c.02-.02.03-.02.06-.01Z"/>
        <path class="cls-11" d="M44.5,22.61s-.05-.03-.07-.06c.04,0,.06.02.07.06Z"/>
        <path class="cls-11" d="M44.43,22.55s-.05-.01-.06-.04c.03,0,.05.01.06.04Z"/>
        <path class="cls-11" d="M44.24,22.42s-.05-.02-.07-.03c.03,0,.05,0,.07.03Z"/>
        <path class="cls-22" d="M42.27,33.38s.02-.04.04-.06c.01.03,0,.05-.04.06Z"/>
        <path class="cls-22" d="M24.87,35.07s.03.02.03.04c0-.01-.02-.03-.03-.04Z"/>
        <path class="cls-11" d="M44.59,22.68s-.03-.03-.04-.04c.01.01.03.03.04.04Z"/>
        <path class="cls-11" d="M44.53,22.64s-.02-.02-.03-.03c.01.01.02.02.03.03Z"/>
        <polygon class="cls-11" points="35.01 47.51 35.02 47.5 35.01 47.51 35.01 47.51"/>
        <path class="cls-11" d="M22.07,22.48s-.02.02-.04.03c.01,0,.02-.02.04-.03Z"/>
        <path class="cls-11" d="M22.1,22.45s0,.01,0,.02c0,0,0,0-.01,0,0,0,0-.02,0-.03Z"/>
        <path class="cls-1" d="M36.08,40.19s-.02.02-.03,0c0,0,.02-.01.03,0Z"/>
        <path class="cls-22" d="M42.52,32.44s0-.04.01-.05c0,.02,0,.04-.01.05Z"/>
        <path class="cls-18" d="M23.35,56.12c.05.05.11.1.16.15.2.21.28.46.28.74,0,.24,0,.48,0,.72,0,.66-.44,1.12-1.1,1.13-.57.01-1.15,0-1.72,0-.15,0-.2.04-.19.19.01.27,0,.53,0,.8,0,.12-.04.15-.15.15-.53,0-1.07,0-1.6,0-.03-.04-.03-.09-.03-.13,0-1.3,0-2.59,0-3.89,0-.03,0-.05.01-.11,1.24,0,2.48,0,3.72,0,.21.06.43.11.62.23ZM20.66,58.8c.08-.04.14-.03.2-.03.62,0,1.23,0,1.85-.02.59-.02.96-.42.97-1.01,0-.22,0-.45,0-.67,0-.62-.39-1.04-1.01-1.04-1.15-.01-2.29,0-3.44,0-.09,0-.13.03-.13.12,0,1.21,0,2.43,0,3.64,0,.09.03.13.13.13.45,0,.9,0,1.35,0,.03,0,.05,0,.08-.04v-1.07Z"/>
        <path class="cls-18" d="M24.94,59.78s-.02-.04-.03-.06c-.01-.05-.04-.08-.09-.1-.11-.24-.11-.49-.11-.75,0-.57,0-1.15,0-1.72,0-.31-.01-.62.14-.9.09-.06.19-.12.25-.22.17-.04.33-.09.5-.13,1,0,2.01,0,3.01,0,.21.05.41.1.59.23.03.03.06.06.09.09.14.17.2.37.2.6,0,.76,0,1.53,0,2.29,0,.54-.34.9-.89.91-1,.01-2,0-3,0-.16,0-.31-.04-.45-.1-.06-.06-.13-.11-.22-.12ZM27.08,59.91h0c.5,0,.99,0,1.49,0,.48,0,.8-.3.8-.75.01-.8.01-1.6,0-2.4,0-.39-.25-.67-.63-.73-.12-.02-.25-.03-.37-.03-.86,0-1.72,0-2.57,0-.12,0-.24,0-.36.03-.37.06-.64.34-.64.69,0,.83,0,1.66,0,2.5,0,.22.1.39.27.52.17.13.36.18.57.18.48,0,.95,0,1.43,0Z"/>
        <path class="cls-18" d="M37.21,60.02s-.03-.09-.03-.13c0-1.3,0-2.59,0-3.89,0-.03,0-.05,0-.07.04-.04.08-.03.12-.03,1.44,0,2.87,0,4.31,0,.03,0,.05,0,.08,0,0,.36,0,.71,0,1.07,0,.13-.04.16-.16.16-.8,0-1.6,0-2.4,0-.06,0-.11,0-.17,0-.07.25-.05.27.17.27.47,0,.94,0,1.41,0,.14,0,.18.04.17.18,0,.26-.01.52,0,.78,0,.15-.05.17-.18.17-.49,0-.97,0-1.46,0-.11,0-.16.02-.16.15,0,.13.06.14.16.14.86,0,1.73,0,2.59,0,0,.35,0,.7,0,1.05,0,.12-.04.15-.15.15-.73,0-1.46,0-2.19,0-.72,0-1.43,0-2.15,0ZM41.58,56.06s-.09-.04-.12-.04c-1.34,0-2.69,0-4.03,0-.14,0-.15.06-.15.17,0,1.18,0,2.36,0,3.55,0,.14.04.18.18.18,1.32,0,2.65,0,3.97,0,.05,0,.11.02.15-.02v-.98h-.18c-.4,0-.81,0-1.21,0-.4,0-.8,0-1.19,0-.06,0-.14.03-.14-.07,0-.13-.02-.26.02-.4.06,0,.12,0,.17,0,.48,0,.95,0,1.43,0,.12,0,.18-.03.17-.17,0-.2,0-.41,0-.61,0-.13-.04-.16-.16-.16-.43,0-.87,0-1.3,0-.39,0-.32.08-.33-.34,0-.1.03-.14.13-.13.04,0,.07,0,.11,0,.78,0,1.56,0,2.34,0,.06,0,.17.04.17-.08,0-.3,0-.6,0-.89Z"/>
        <path class="cls-18" d="M45.72,59.54s0-.05-.03-.06c0-.09-.05-.15-.12-.2-.01-.05-.02-.09-.07-.12-.03-.05-.07-.09-.09-.14-.1-.25-.29-.29-.53-.27-.1.01-.13.04-.13.14,0,.32,0,.64,0,.96,0,.13-.03.17-.17.17-.53,0-1.07,0-1.6,0v-4.12c1.24,0,2.47,0,3.71,0,.2.05.41.1.59.19.03.04.07.06.12.07.02.03.04.07.07.08.21.23.31.51.29.82,0,.19,0,.39,0,.58,0,.45-.2.78-.6.99-.02.01-.05.02-.07.04,0,0,0,0-.03.04.31.42.63.85.97,1.31-.68,0-1.33,0-1.97,0,0-.01-.02-.02-.03-.03,0-.04-.02-.06-.06-.06,0-.03,0-.05-.03-.06,0-.09-.05-.15-.12-.19-.01-.06-.03-.12-.1-.12ZM46.88,58.63c.07-.03.1-.04.13-.06.42-.16.64-.48.65-.92,0-.18,0-.37,0-.55,0-.66-.4-1.07-1.06-1.08-1.13,0-2.25,0-3.38,0-.12,0-.15.03-.15.15,0,1.2,0,2.4,0,3.59,0,.12.04.15.15.15.42,0,.85,0,1.27,0,.04,0,.08.01.13-.04,0-.35,0-.72,0-1.08,0-.11.04-.15.14-.15.13,0,.25,0,.38,0,.1,0,.16.03.22.12.22.35.46.69.68,1.04.06.09.12.12.23.12.32,0,.64,0,.96,0,.19,0,.37,0,.6,0-.33-.44-.64-.85-.96-1.28Z"/>
        <path class="cls-25" d="M37.22,20.06c-.01-.4-.01-.79,0-1.19.06.02.05.07.05.12,0,.32,0,.63,0,.95,0,.05,0,.1-.05.12Z"/>
        <path class="cls-25" d="M37.22,15.51c-.01-.27-.02-.55,0-.82.01.01.04.03.04.04.02.24.01.49,0,.73,0,.01-.03.03-.04.04Z"/>
        <path class="cls-25" d="M37.22,16.86c-.02-.24-.01-.48,0-.72.04.02.05.05.05.09,0,.18,0,.36,0,.54,0,.04,0,.07-.05.09Z"/>
        <path class="cls-25" d="M37.22,17.61c-.02-.18-.02-.35,0-.53.07.11.07.42,0,.53Z"/>
        <path class="cls-25" d="M37.22,18.59c0-.05,0-.1,0-.16.07.05.07.1,0,.16Z"/>
        <path class="cls-15" d="M34.01,47.89c.14,0,.2.08.21.2.02.11.07.16.18.14,0,0,.01,0,.02,0q.26,0,.39-.2c.07.03.04.09.04.14,0,1.76,0,3.52,0,5.27,0,.12-.04.17-.16.16-.24-.01-.48.05-.72.03.06-1.92,0-3.83.03-5.75Z"/>
        <path class="cls-21" d="M28.28,39.53s0-.04,0-.06c.13,0,.22.07.32.13.1.06.2.1.32.08h0c-.02.08.03.1.09.11.09.02.18.06.23.16-.19.04-.36-.02-.53-.05-.12-.03-.13.03-.15.13-.08.4-.11.8-.08,1.23-.09-.06-.07-.11-.07-.16-.01-.31-.02-.61,0-.92,0-.07,0-.14-.06-.2-.05-.05-.03-.12-.03-.18-.01-.09.03-.19-.04-.27Z"/>
        <path class="cls-24" d="M37.67,24.67c-.49,0-.97,0-1.46,0-.07-.03-.14-.03-.21,0-1.47-.02-2.94-.02-4.41,0-.92,0-1.83,0-2.75,0-.39,0-.77,0-1.16,0-.03-.03-.06-.03-.1-.03-.44,0-.89,0-1.33,0-.04,0-.07,0-.1.03-.17.04-.34,0-.51,0,0-.1-.06-.16-.12-.21-.2-.18-.34-.39-.37-.66-.02-.14-.08-.27-.08-.43,0-.32.1-.6.31-.84.05-.05.08-.11.07-.18.12,0,.23,0,.35,0,3.07,0,6.13,0,9.2,0,1.98,0,3.96,0,5.93,0,.02.11.08.21.15.29.25.31.21.65.16,1-.03.17-.08.33-.12.5-.01.06-.05.09-.11.09-.32-.01-.31.09-.28.36,0,0,0,.02,0,.03-.06.03-.12.02-.18.02-.88,0-1.77,0-2.65,0-.06,0-.13-.02-.18.03,0,0,0,0,0,0-.01,0-.03,0-.04.01Z"/>
        <path class="cls-3" d="M40.94,22.33c-1.98,0-3.96,0-5.93,0-3.07,0-6.13,0-9.2,0-.12,0-.23,0-.35,0-.84,0-1.67,0-2.51,0-.11,0-.22,0-.33,0,0,0,0-.02,0-.03,6.03,0,12.05,0,18.08,0,.97,0,1.95,0,2.92,0,.12,0,.25,0,.37.06-1.02-.06-2.04-.02-3.05-.03Z"/>
        <path class="cls-19" d="M22.64,24.68s0-.02,0-.03c.26-.03.52-.04.78,0-.26.04-.52,0-.78.02Z"/>
        <path class="cls-19" d="M23.67,24.66s-.08.03-.12,0c.04-.04.08-.03.12,0Z"/>
        <path class="cls-13" d="M26.38,18.28c-.02-.64-.02-1.29,0-1.93.04.64.04,1.29,0,1.93Z"/>
        <path class="cls-13" d="M26.39,20.48c-.02-.35-.02-.7,0-1.05.03.35.04.7,0,1.05Z"/>
        <path class="cls-13" d="M26.39,16.08c-.02-.34-.01-.68,0-1.02.06.11.03.24.02.35,0,.22.03.45-.02.67Z"/>
        <path class="cls-13" d="M26.39,19.38c-.02-.27-.02-.54,0-.8.04.27.03.54,0,.8Z"/>
        <path class="cls-13" d="M26.39,21.39c-.02-.26-.02-.51,0-.77.04.26.03.51,0,.77Z"/>
        <path class="cls-13" d="M34.97,48.51s.01.09.01.14c0,1.32,0,2.65,0,3.97,0,.05,0,.09-.01.14-.03-.05-.02-.11-.02-.17,0-1.31,0-2.61,0-3.92,0-.06,0-.12.02-.17Z"/>
        <path class="cls-15" d="M34.42,47.68c.09-.04.4-.01.44.04.03.04.03.08,0,.12-.03.06-.09.06-.14.03-.05-.03-.11-.07-.15-.1-.05-.03-.12-.02-.16-.08Z"/>
        <path class="cls-13" d="M34.95,47.76c.05.08.03.17.02.26-.04-.08-.02-.17-.02-.26Z"/>
        <path class="cls-13" d="M34.97,53.03c.01.06.01.11,0,.17-.03-.06-.03-.11,0-.17Z"/>
        <path class="cls-13" d="M34.97,48.13s0,.07,0,.11c-.03-.04-.03-.07,0-.11Z"/>
        <path class="cls-4" d="M32.69,40.63c.29,0,.58,0,.88,0-.02.09-.11.08-.17.09-.21.03-.42-.03-.62-.02-.05,0-.08-.02-.09-.07Z"/>
        <path class="cls-14" d="M32.66,39.99c0-.07.06-.09.11-.08.36.06.71,0,1.07,0,.05,0,.09,0,.11.06-.43.06-.86.04-1.29.02Z"/>
        <path class="cls-14" d="M32.43,39.96c.04-.06.07-.06.1.01-.03.01-.07.01-.1-.01Z"/>
        <path class="cls-15" d="M26.16,24.64s.07-.03.1-.03c.44,0,.89,0,1.33,0,.04,0,.07,0,.1.03-.25.05-.5-.02-.74.02-.02,0-.03,0-.05-.01-.25,0-.5,0-.74-.01Z"/>
        <path class="cls-13" d="M36.01,24.67c.07-.03.14-.03.21,0-.07.02-.14.02-.21,0Z"/>
        <path class="cls-13" d="M37.67,24.67s.03,0,.04-.01c-.01,0-.03,0-.04.01Z"/>
        <path class="cls-13" d="M26.9,24.66s.03,0,.05.01c-.02,0-.03,0-.05-.01Z"/>
        <path class="cls-4" d="M28.93,39.68c-.12.02-.22-.02-.32-.08-.1-.06-.2-.14-.32-.13-.02-.04,0-.09-.05-.12.03,0,.06-.04.1,0,.17.15.41.19.59.34Z"/>
        <path class="cls-4" d="M33.44,46.87s.02-.06.03-.07c.16-.02.32-.02.47.07-.17.02-.34.03-.5,0Z"/>
        <path class="cls-4" d="M32.94,46.87c.08-.08.17-.08.25,0-.08.02-.17.02-.25,0Z"/>
        <path class="cls-4" d="M32.43,46.87c.09-.07.17-.09.26,0-.09.02-.17.02-.26,0Z"/>
        <path class="cls-7" d="M37.21,13.97s0-.02,0-.02c0,0,0,0,.01,0,0,.01,0,.02,0,.03Z"/>
        <path class="cls-5" d="M38.53,33.94c-.04.17-.19.21-.32.21-.99.03-1.97.05-2.96.03-.66-.02-1.32,0-1.99.01-1.26,0-2.52,0-3.78,0-.21,0-.42-.02-.64-.03-.08,0-.16,0-.23.02-.49.09-1.01-.23-1.09-.75-.02-.15-.04-.31-.06-.46-.01-.06.03-.1.06-.14.14-.21.32-.4.53-.54.1-.06.23,0,.35-.04.14-.03.26,0,.39-.13.13-.12.18-.22.19-.37,0-.07-.03-.12-.1-.14-.2-.07-.32-.2-.45-.36-.07-.08-.1-.18-.18-.26-.02-.02-.03-.05-.02-.09.07-.22.06-.44.04-.65.14-.13.28-.26.42-.38.11-.1.28-.12.44-.13.31,0,.63,0,.94,0,.15,0,.29,0,.41-.12.04-.04.1-.04.15-.02.18.07.38.09.57.14.08.02.18.03.26-.03.03-.02.07-.03.1-.02.23.09.47.05.7.05.38,0,.75,0,1.13,0,.16,0,.31,0,.46-.05.1-.04.23-.04.33.02.1.06.18,0,.24-.06.12-.11.22-.08.32,0,.19.15.38.15.59.02.08-.05.18-.06.27-.06.13,0,.25,0,.38,0,.03,0,.07,0,.09,0,.27.22.58.1.87.08.09,0,.18-.02.27.02.08.03.18.03.26,0,.31-.09.49.13.69.28.07.05.13.12.19.18.11.1.08.25.1.38.05.43-.12.77-.5.99-.09.05-.16.11-.15.23,0,.04-.02.08-.05.11-.08.07-.07.16.03.19.07.02.11.04.13.11.01.05.07.06.12.05.26-.04.44.1.59.27.09.11.22.19.27.34.1.29.08.56-.08.81-.07.11-.1.28-.28.27.04-.04.07-.08.11-.13h.01s0-.01,0-.01c.28-.41.27-.9-.11-1.24-.2-.18-.43-.23-.69-.23-2.25,0-4.5,0-6.75,0-.9,0-1.8,0-2.7,0-.36,0-.63.21-.76.54-.14.34-.1.68.18.95,0,0,.02.01.03.02,0,0,0,0,0,0,0,0,.01.02.02.02.14.13.29.22.49.22.04,0,.08,0,.13,0,.06.01.13.01.19,0,.03,0,.05,0,.08,0,2.55,0,5.11,0,7.66,0,.2,0,.41,0,.61-.01.02,0,.03,0,.05,0,.33.02.66.01,1,0,.06,0,.12.02.18-.03h.01c.11,0,.18-.1.28-.13ZM37.9,31.47c.05,0,.08-.03.1-.06,0,0,.02-.01.03-.02.08-.01.13-.06.15-.14,0,0,0,0,0-.02.04,0,.05-.02.07-.05.17-.29.19-.58.02-.88-.2-.35-.51-.47-.91-.47-2.08,0-4.16,0-6.25,0-.64,0-1.28,0-1.91,0-.52,0-1.01.52-.84,1.1.12.4.48.66.97.66,2.59,0,5.18,0,7.77,0,.17,0,.34,0,.5,0,.11,0,.22,0,.29-.11h0Z"/>
        <path class="cls-5" d="M37.43,29.12c-.17.28-.45.25-.72.25-.12,0-.27-.08-.27.15,0,.05-.07.08-.12.08-.08,0-.17-.02-.19-.11-.03-.1-.08-.11-.16-.08-.04.01-.1.02-.14,0-.2-.13-.42-.08-.63-.08-.26,0-.52.03-.76.01-.28-.02-.56.04-.85,0-.14-.02-.28,0-.41.08-.08.04-.15.03-.24,0-.19-.07-.35-.2-.59-.08-.11.06-.28,0-.43-.03-.05-.01-.1-.05-.15-.03-.22.09-.44,0-.66,0-.22,0-.44,0-.65.03-.21.02-.41.03-.62-.02-.12-.03-.25-.02-.37-.02-.38.02-.7-.14-.97-.38-.26-.23-.34-.69-.19-1.06.05-.12.1-.24.16-.36.14-.03.28-.03.38-.14.05-.05.13-.04.19-.04.35,0,.69.02,1.04,0,.68-.05,1.36,0,2.05-.03.23-.01.44.03.67.03.67,0,1.34.04,2-.01.1,0,.21.02.31.02.22,0,.44-.03.66-.02.42.01.85.02,1.27.02.03,0,.07,0,.09,0,.23-.09.43,0,.62.1.05.03.1.05.13.11.04.09.1.16.17.23.07.07.08.14.02.23-.01-.01-.03-.03-.04-.04-.17-.38-.47-.55-.87-.55-1.12,0-2.23,0-3.35,0-.05,0-.09,0-.14.01-.13-.02-.27-.02-.4,0-.05,0-.1-.01-.16-.01-.93,0-1.85,0-2.78,0-.06,0-.12,0-.19.01-.15-.02-.31-.02-.46,0-.14-.03-.28,0-.42,0-.22,0-.41.06-.57.22h0s0,0,0,0c-.03.03-.06.05-.08.08-.01,0-.01,0-.01.02-.36.4-.27,1.04.19,1.3h0s0,0,0,0c.09.08.2.11.31.12.19.03.39.02.58.02,2.59,0,5.18,0,7.76-.01Z"/>
        <path class="cls-19" d="M37.43,29.12c-2.59,0-5.18,0-7.76.01-.19,0-.39.01-.58-.02-.11-.02-.22-.04-.31-.12.68.13,1.36.03,2.04.05.27.01.54,0,.81,0,1.26.01,2.51,0,3.77,0,.06,0,.12,0,.17,0,.53-.08,1.06.02,1.59,0,.19-.01.38,0,.56-.08,0,0,.01.01.02.02-.07.07-.16.08-.24.13-.02,0-.04.01-.06.02Z"/>
        <path class="cls-19" d="M33.66,27.37s.09-.01.14-.01c1.12,0,2.23,0,3.35,0,.4,0,.7.17.87.55,0,.02.03.03.04.04,0,.04,0,.09.04.12,0,.06,0,.11,0,.17,0,.31-.12.55-.37.73,0,0-.01-.01-.02-.02.03-.05.06-.1.1-.14.17-.21.24-.44.19-.71-.02-.13-.17-.18-.18-.3,0-.08-.06-.13-.11-.18-.14-.12-.3-.15-.48-.17-.21-.02-.42-.02-.64,0-.31.02-.61-.04-.92-.03-.61,0-1.21,0-1.82,0-.07,0-.14.02-.19-.04Z"/>
        <path class="cls-5" d="M37.73,28.97c.25-.18.38-.42.37-.73,0-.06,0-.11,0-.17.09.09.16.19.07.33-.02.03-.03.08-.02.12.04.16-.07.24-.16.34-.07.08-.15.15-.23.22-.09.07-.17.09-.27.03.08-.04.18-.06.24-.13Z"/>
        <path class="cls-18" d="M20.66,57.08c.24,0,.45,0,.67,0,.18,0,.37,0,.55,0,.22,0,.3.1.3.31,0,.2-.09.31-.29.31-.38,0-.75,0-1.13,0-.06,0-.11,0-.11-.08,0-.18,0-.35,0-.55ZM20.81,57.59c.35,0,.71,0,1.06,0,.16,0,.21-.06.21-.21,0-.15-.07-.21-.21-.21-.25,0-.5,0-.75,0q-.38,0-.33.38s0,0,.02.04Z"/>
        <path class="cls-18" d="M27.85,57.95c0,.19,0,.38,0,.56,0,.18-.09.29-.27.31-.33.03-.67.03-1,0-.16-.01-.26-.13-.26-.3,0-.37,0-.74,0-1.11,0-.2.12-.32.33-.32.29,0,.59,0,.88,0,.21,0,.33.12.33.33,0,.18,0,.36,0,.53ZM27.72,58.57s.03-.02.03-.03c0-.39,0-.77,0-1.16,0-.1-.07-.16-.17-.17-.32-.03-.65-.03-.97,0-.12.01-.18.08-.18.2,0,.38,0,.75,0,1.13,0,.1.05.18.15.19.34.02.68,0,1.02,0,.01,0,.02-.02.04-.03.03-.04.06-.08.08-.11Z"/>
        <path class="cls-18" d="M44.65,57.09c.43,0,.86,0,1.28,0,.13,0,.22.09.22.24,0,.17-.05.27-.2.31-.08.02-.16.02-.23.02-.31,0-.63,0-.94,0-.12,0-.16-.04-.15-.16.01-.13-.02-.27.02-.41ZM45.37,57.18h0c-.17,0-.33,0-.5,0-.08,0-.13.02-.12.11,0,.06,0,.11,0,.17,0,.06.02.09.08.09.35,0,.71,0,1.06-.01.12,0,.16-.08.16-.19,0-.12-.07-.17-.18-.17-.17,0-.33,0-.5,0Z"/>
        <path class="cls-6" d="M38.25,34.07s-.01,0-.01,0c-.06-.01-.12-.02-.18-.04-.09,0-.18.04-.26.02-.2-.04-.39-.01-.59-.02-.06,0-.12,0-.15.06-.02,0-.03,0-.05,0-.05-.09-.13-.06-.2-.06-.75,0-1.49,0-2.24,0-.64,0-1.28-.04-1.93.03-.21.02-.43-.03-.64-.03-.32,0-.65,0-.97.02-.33.02-.66,0-.98-.02-.38-.03-.77,0-1.16,0-.08,0-.17.01-.24.06-.06.02-.12.01-.19,0-.02-.01-.04-.03-.06-.04-.04-.11-.16-.07-.23-.09-.11-.03-.2-.14-.32-.09,0,0-.01-.02-.02-.02,0,0,0,0,0,0h0s-.02,0-.03-.02c.04-.05,0-.09-.03-.14-.05-.07-.1-.13-.1-.22,0,0,0,0,0-.01,0,0,0,0,0,0-.23-.43.22-1.07.77-1.07,3.16,0,6.32,0,9.48,0,.27,0,.52.12.66.36.16.26.24.55.06.85-.03.05-.08.12-.01.18h0s-.01.01-.01.01c-.08-.02-.34.15-.39.26ZM28.15,33.1s0,.02-.01.03c-.04,0-.06.04-.06.08-.03.19.12.35.34.39.14.02.27,0,.41,0,2.81,0,5.62,0,8.43,0,.25,0,.51,0,.76,0,.18,0,.37-.19.35-.35-.02-.23-.21-.45-.38-.42-.24.04-.48.02-.72.02-2.88,0-5.77,0-8.65,0-.16,0-.3.02-.43.12-.04.03-.12.06-.04.13Z"/>
        <path class="cls-6" d="M38.03,31.38l-.03.02s-.09,0-.1.06c0,0,0,0,0,0-.39.08-.78.02-1.17,0,.18-.07.39.02.55-.12,0-.06-.04-.08-.07-.11-.03-.04-.04-.07-.01-.11.03-.04.07-.05.11-.03.21.1.35-.06.51-.15.05-.03.06-.08.07-.13.02-.23-.02-.36-.28-.45-.12-.05-.25,0-.37,0-2.53,0-5.06,0-7.59,0-.09,0-.19,0-.28-.02-.24-.04-.39.02-.46.18-.01.02-.02.04-.03.06-.09.16-.03.33.15.44.07.04.12.07.09.17-.05.15-.02.2.14.2.43,0,.87,0,1.3.03.18.01.35-.06.53-.02.2.04.4.04.59.02.23-.03.45.02.67,0,.04,0,.08-.01.14.08-.37,0-.71,0-1.05,0-.2,0-.39-.06-.59-.03-.17.02-.34.03-.51.02-.24-.01-.48,0-.72.01-.6.03-.92-.01-1.15-.58-.09-.22-.02-.6.16-.77.18-.17.4-.28.66-.28,2.66,0,5.32,0,7.97,0,.29,0,.55.05.78.25.2.17.32.58.21.8-.05.09-.06.19-.06.28,0,0,0,.01,0,.02-.1,0-.13.06-.15.14Z"/>
        <path class="cls-19" d="M38.19,31.23c0-.1.02-.19.06-.28.11-.23-.01-.64-.21-.8-.23-.2-.49-.25-.78-.25-2.66,0-5.32,0-7.97,0-.26,0-.48.1-.66.28-.18.17-.25.55-.16.77.24.57.56.61,1.15.58.24-.01.48-.03.72-.01.17,0,.35,0,.51-.02.2-.03.39.02.59.03.34.01.68,0,1.05,0-.06-.1-.1-.08-.14-.08-.22.01-.44-.03-.67,0-.19.02-.39.02-.59-.02-.18-.03-.35.03-.53.02-.43-.03-.87-.02-1.3-.03-.17,0-.2-.05-.14-.2.03-.09-.02-.13-.09-.17-.18-.11-.24-.28-.15-.44.01,0,.02,0,.03,0,0,.31.1.41.41.41.37,0,.73,0,1.1,0,2.34,0,4.68,0,7.03,0,.21,0,.32-.07.36-.21.04-.15-.02-.26-.21-.36,0-.02,0-.04,0-.06.26.09.3.22.28.45,0,.06-.02.11-.07.13-.16.09-.3.24-.51.15-.04-.02-.08,0-.11.03-.03.04-.02.08.01.11.03.03.07.05.07.11-.16.14-.37.05-.55.12.39.02.78.08,1.17,0-.07.1-.19.1-.29.11-.17.01-.33,0-.5,0-2.59,0-5.18,0-7.77,0-.49,0-.85-.26-.97-.66-.17-.58.32-1.11.84-1.1.64,0,1.28,0,1.91,0,2.08,0,4.16,0,6.25,0,.39,0,.71.12.91.47.16.29.15.59-.02.88-.02.03-.03.05-.07.05ZM33.44,31.48s0-.02,0-.03h-.79s0,.02,0,.03h.79Z"/>
        <path class="cls-22" d="M27.69,33.47c0,.09.05.15.1.22.03.04.06.08.03.14-.28-.28-.32-.61-.18-.95.14-.33.4-.53.76-.54.9-.01,1.8,0,2.7,0,2.25,0,4.5,0,6.75,0,.26,0,.5.06.69.23.38.34.38.83.11,1.24-.07-.07-.02-.13.01-.18.17-.3.09-.59-.06-.85-.14-.23-.39-.36-.66-.36-3.16,0-6.32,0-9.48,0-.56,0-1.01.63-.77,1.07h0Z"/>
        <path class="cls-11" d="M28.67,34.1c.07-.05.15-.06.24-.06.39,0,.77-.02,1.16,0,.33.02.66.04.98.02.32-.02.65-.01.97-.02.21,0,.43.05.64.03.64-.06,1.28-.02,1.93-.03.75,0,1.49,0,2.24,0,.07,0,.15-.03.2.06-.2,0-.41.01-.61.01-2.55,0-5.11,0-7.66,0-.03,0-.05,0-.08,0Z"/>
        <path class="cls-11" d="M37.06,34.1c.03-.07.09-.06.15-.06.2,0,.39-.02.59.02.08.02.17-.01.26-.02,0,.02,0,.04,0,.06-.33.01-.66.01-1,0Z"/>
        <path class="cls-22" d="M27.87,33.88c.13-.05.22.07.32.09.07.02.19-.02.23.09-.02.01-.04.02-.06.03-.19,0-.35-.09-.49-.22Z"/>
        <path class="cls-22" d="M38.25,34.07c.06-.11.31-.27.39-.26-.04.04-.07.08-.11.13h0c-.1.03-.17.12-.28.13Z"/>
        <path class="cls-19" d="M38.03,31.38c.02-.08.05-.14.15-.14-.03.07-.07.13-.15.14Z"/>
        <path class="cls-22" d="M38.06,34.1s0-.04,0-.06c.06.01.12.02.18.04-.05.04-.12.03-.18.03Z"/>
        <path class="cls-19" d="M37.9,31.47c0-.06.05-.07.1-.06-.02.04-.05.07-.1.06Z"/>
        <path class="cls-11" d="M28.35,34.1s.04-.02.06-.03c.02.01.04.03.06.04-.04,0-.08,0-.13,0Z"/>
        <polygon class="cls-22" points="27.85 33.85 27.85 33.85 27.85 33.86 27.85 33.85"/>
        <path class="cls-7" d="M33.66,27.37c.05.06.12.04.19.04.61,0,1.21,0,1.82,0,.31,0,.61.05.92.03.21-.01.42-.02.64,0,.17.02.34.06.48.17.06.05.1.1.11.18.02.13.16.18.18.3.05.27-.01.5-.19.71-.04.04-.06.09-.1.14-.18.07-.37.07-.56.08-.53.03-1.06-.08-1.59,0-.06,0-.11,0-.17,0-1.26,0-2.51,0-3.77,0-.27,0-.54.01-.81,0-.68-.03-1.36.08-2.04-.05,0,0,0,0,0,0,0,0,0,0,0,0,0-.08-.02-.16-.1-.21-.24-.16-.31-.62-.11-.82.09-.1.08-.17.03-.27,0-.01,0-.02.01-.02.08.03.11,0,.08-.08h0s0,0,0,0c.02,0,.05.02.06.01.24-.16.52-.15.79-.15.06,0,.11-.01.14-.07.15-.02.31-.02.46,0,.05.06.11.04.17.04.92,0,1.85,0,2.77,0,.06,0,.13.02.17-.04.13-.02.27-.02.4,0ZM28.92,28.11s0,0,0,0c-.06,0-.07.04-.07.09.01.08-.01.18.1.22.03.01.05.03.05.07-.02,0-.05.01-.04.04.01.04.05.02.08.02h0c0,.06.05.08.09.1-.02.06-.03.12-.05.17.03.05.07.05.12.05.39,0,.77,0,1.16.03.2.02.41-.02.61-.03.31,0,.63,0,.94.03.32.02.65-.02.97-.02.8,0,1.61-.03,2.41.02.46.02.92-.03,1.38-.03.17,0,.34-.04.51,0,.04,0,.09.01.11-.05-.04-.06-.15-.09-.12-.19.27,0,.4-.11.44-.35.02-.14-.04-.21-.17-.24,0,0,0,0,0,0-.02-.13-.11-.17-.23-.15-.08.01-.17.02-.25.02-.86.02-1.71-.02-2.57,0-.35,0-.7,0-1.05,0-.08,0-.16,0-.23-.02-.28-.04-.57.01-.86.01-.2,0-.41.02-.61,0-.17-.02-.33-.02-.5,0-.33.03-.66.02-.99,0-.35-.02-.7-.05-1.05.02-.1.02-.2.06-.18.19,0,0,0,0,0,0-.01.01-.02.02-.04.03Z"/>
        <path class="cls-19" d="M33.26,27.37c-.05.06-.11.04-.17.04-.92,0-1.85,0-2.77,0-.06,0-.13.02-.17-.04.06,0,.12-.01.19-.01.93,0,1.85,0,2.78,0,.05,0,.1,0,.16.01Z"/>
        <path class="cls-19" d="M28.57,27.68c.06.1.07.17-.03.27-.2.2-.13.66.11.82.08.05.09.13.1.21-.45-.26-.55-.9-.19-1.3Z"/>
        <path class="cls-19" d="M29.68,27.37c-.03.06-.08.08-.14.07-.27,0-.55-.02-.79.15-.01,0-.04,0-.06-.01.16-.16.35-.22.57-.22.14,0,.28-.02.42,0Z"/>
        <path class="cls-19" d="M28.67,27.58c.02.08,0,.11-.08.08.03-.03.06-.05.08-.08Z"/>
        <path class="cls-9" d="M27.64,58.68c-.19.03-.38,0-.56.01-.07,0-.1-.03-.1-.1,0-.26,0-.51,0-.77,0-.11.06-.18.17-.19.19,0,.37,0,.57,0,0,.32,0,.63,0,.93-.03.04-.06.08-.08.11Z"/>
        <path class="cls-11" d="M28.15,33.1c-.07-.07,0-.1.04-.13.12-.11.27-.12.43-.12,2.88,0,5.77,0,8.65,0,.24,0,.48.02.72-.02.17-.03.36.2.38.42.01.16-.17.35-.35.35-.25,0-.51,0-.76,0-2.81,0-5.62,0-8.43,0-.13,0-.27.03-.41,0-.22-.04-.37-.2-.34-.39,0-.04.02-.07.06-.08,0,.24.07.35.25.39.06.02.14.01.2.01,2.66,0,5.32,0,7.97,0,.48,0,.95,0,1.43,0,.16,0,.23-.1.28-.23.05-.11,0-.2-.09-.27h0c-.07-.11-.17-.12-.29-.12-.37,0-.73,0-1.1,0-2.72,0-5.44,0-8.15,0-.2,0-.38.03-.5.19Z"/>
        <path class="cls-25" d="M38.19,33.03c.08.07.14.16.09.27-.05.13-.13.23-.28.23-.48,0-.95,0-1.43,0-2.66,0-5.32,0-7.97,0-.07,0-.14,0-.2-.01-.19-.05-.25-.15-.25-.39,0,0,0-.02.01-.03.13-.17.3-.19.5-.19,2.72,0,5.44,0,8.15,0,.37,0,.73,0,1.1,0,.11,0,.22.02.29.12-.13.02-.24-.06-.36-.06-3,0-6,0-8.99,0-.16,0-.32,0-.48.1-.16.11-.19.17-.06.31.09.09.18.12.31.12,2.67,0,5.34,0,8,0,.4,0,.8.02,1.21-.03.32-.04.36-.06.37-.39,0-.02,0-.04,0-.06Z"/>
        <polygon class="cls-22" points="27.69 33.47 27.7 33.46 27.69 33.47 27.69 33.47"/>
        <path class="cls-11" d="M37.62,30.36s0,.04,0,.06c-.4-.03-.79-.01-1.19-.01-2.34,0-4.69,0-7.03,0-.16,0-.33,0-.45.14,0,0-.02-.01-.02-.02.08-.16.23-.22.46-.18.09.02.19.02.28.02,2.53,0,5.06,0,7.59,0,.12,0,.25-.05.37,0Z"/>
        <path class="cls-11" d="M28.92,30.58s-.02,0-.03,0c.01-.02.02-.04.03-.06,0,0,.02.01.02.02,0,.01-.01.03-.02.04Z"/>
        <path class="cls-12" d="M28.92,30.58s.01-.03.02-.04c.12-.14.28-.14.45-.14,2.34,0,4.69,0,7.03,0,.4,0,.8-.02,1.19.01.18.1.24.2.21.36-.04.14-.15.21-.36.21-2.34,0-4.68,0-7.03,0-.37,0-.73,0-1.1,0-.32,0-.41-.1-.41-.41Z"/>
        <path class="cls-6" d="M33.44,31.48h-.79s0-.02,0-.03h.79s0,.02,0,.03Z"/>
        <path class="cls-19" d="M37.18,28.61c-.03.1.08.13.12.19-.02.07-.07.06-.11.05-.17-.04-.34,0-.51,0-.46,0-.92.06-1.38.03-.81-.04-1.61-.02-2.41-.02-.32,0-.65.04-.97.02-.31-.02-.63-.03-.94-.03-.2,0-.41.04-.61.03-.39-.03-.77-.02-1.16-.03-.04,0-.08,0-.12-.05.01-.05.03-.11.05-.17.55,0,1.1,0,1.65,0,.06,0,.13.02.14-.08.07-.02.15-.02.22,0,0,.1.08.08.14.08.19,0,.39-.02.58-.02.49,0,.98.03,1.47.02.92-.01,1.84.02,2.76-.02.36-.01.73,0,1.09,0Z"/>
        <path class="cls-25" d="M29.01,28.48s-.02-.05-.05-.07c-.01-.08-.02-.17-.04-.25v-.06s0,0,0,0c.01-.01.02-.02.04-.03,0,0,0,0,0,0,.11-.11.24-.15.39-.14.27,0,.55,0,.82,0,.08.01.17.01.25,0,.09,0,.19,0,.28,0,.14.01.27.02.41,0,.21,0,.42,0,.63,0,.13.01.25.01.38,0,.46,0,.92,0,1.38,0,.06.01.13.01.19,0,.7,0,1.4,0,2.1,0,.09.01.19.02.28,0,.04,0,.08,0,.12,0,.21.02.42.02.63,0,.03,0,.06,0,.09,0,.01,0,.02,0,.03,0,.17.01.34-.02.49.09,0,0,0,0,0,0,.13.22.13.27.01.4.03-.28-.07-.4-.29-.41-.37-.01-.75-.06-1.12-.02-.36.03-.72.01-1.07.01-1.53.02-3.06,0-4.59,0-.33,0-.67,0-1,0-.09,0-.19,0-.27.04-.08.04-.12.13-.09.23.03.11.1.17.21.19.05.01.13-.04.16.06-.11.05-.22-.01-.34,0,0,0,0,0,0,0-.01-.02-.03-.04-.04-.06Z"/>
        <path class="cls-11" d="M37.46,28.42c.12-.13.12-.19-.01-.4.13.03.19.1.17.24-.04.25-.17.36-.44.35-.36,0-.73,0-1.09,0-.92.04-1.84,0-2.76.02-.49,0-.98-.01-1.47-.02-.19,0-.38.02-.58.02-.06,0-.13.01-.14-.08.21,0,.43,0,.64,0,1.62,0,3.23,0,4.85,0,.23,0,.47.03.7-.03.05,0,.07-.03.09-.06h0s.02-.02.03-.03h0Z"/>
        <path class="cls-11" d="M30.17,27.94c-.27,0-.55.01-.82,0-.15,0-.29.03-.39.14-.02-.14.08-.18.18-.19.35-.06.7-.04,1.05-.02.33.02.66.03.99,0,.17-.01.33-.02.5,0,.2.03.41,0,.61,0,.29,0,.57-.05.86-.01.08.01.16.02.23.02.35-.01.7,0,1.05,0,.86,0,1.71.03,2.57,0,.08,0,.17,0,.25-.02.11-.02.2.03.23.15-.15-.11-.33-.08-.49-.09-.01,0-.02,0-.03,0-.03,0-.06,0-.09,0-.21-.03-.42-.03-.63,0-.04,0-.08,0-.12,0-.09-.03-.19-.03-.28,0-.7,0-1.4,0-2.1,0-.06-.03-.13-.03-.19,0-.46,0-.92,0-1.38,0-.13-.03-.25-.03-.38,0-.21,0-.42,0-.63,0-.14-.03-.27-.03-.41,0-.09,0-.19,0-.28,0-.08-.03-.17-.03-.25,0Z"/>
        <path class="cls-11" d="M29.05,28.53c.11-.01.22.05.34,0,.06.03.12.02.18.02.45,0,.91,0,1.36,0,0,.1-.07.08-.14.08-.55,0-1.1,0-1.65,0-.04-.02-.1-.04-.09-.1Z"/>
        <path class="cls-19" d="M28.92,28.16c.01.08.02.17.04.25-.12-.03-.09-.13-.1-.22.02-.01.04-.02.07-.03Z"/>
        <path class="cls-11" d="M29.01,28.48s.03.04.04.06c-.03,0-.07.02-.08-.02,0-.02.02-.03.04-.04Z"/>
        <path class="cls-11" d="M28.92,28.16s-.04.02-.07.03c0-.05,0-.09.07-.09,0,.02,0,.04,0,.06Z"/>
        <path class="cls-11" d="M28.96,28.07s-.02.02-.04.03c.01-.01.02-.02.04-.03Z"/>
        <path class="cls-20" d="M38.19,33.03s0,.04,0,.06c0,.32-.05.35-.37.39-.4.05-.8.03-1.21.03-2.67,0-5.34,0-8,0-.13,0-.22-.03-.31-.12-.14-.14-.11-.2.06-.31.15-.1.32-.1.48-.1,3,0,6,0,8.99,0,.13,0,.24.08.36.06,0,0,0,0,0,0Z"/>
        <path class="cls-20" d="M30.93,28.55c-.45,0-.91,0-1.36,0-.06,0-.12.02-.18-.02-.03-.09-.1-.04-.16-.06-.11-.02-.18-.08-.21-.19-.02-.1.01-.19.09-.23.08-.04.18-.04.27-.04.33,0,.67,0,1,0,1.53,0,3.06,0,4.59,0,.36,0,.71.02,1.07-.01.37-.03.75,0,1.12.02.22,0,.32.12.29.41,0,0,0,0,0,0-.01.01-.02.02-.03.03,0,0,0,0,0,0-.05,0-.09,0-.09.06-.23.06-.47.03-.7.03-1.62,0-3.23,0-4.85,0-.21,0-.43,0-.64,0-.07-.02-.15-.02-.22,0Z"/>
        <path class="cls-13" d="M36.2,27.93c.21-.03.42-.03.63,0-.21.02-.42.02-.63,0Z"/>
        <path class="cls-13" d="M30.71,27.93c.14-.03.27-.03.41,0-.14.01-.27.01-.41,0Z"/>
        <path class="cls-13" d="M31.74,27.93c.13-.03.25-.03.38,0-.13.01-.25.01-.38,0Z"/>
        <path class="cls-13" d="M35.79,27.93c.09-.03.19-.03.28,0-.09.02-.19.01-.28,0Z"/>
        <path class="cls-13" d="M30.17,27.94c.08-.03.17-.03.25,0-.08.01-.17.01-.25,0Z"/>
        <path class="cls-13" d="M33.5,27.93c.06-.03.13-.03.19,0-.06.01-.13.01-.19,0Z"/>
        <path class="cls-13" d="M36.92,27.93s.02,0,.03,0c-.01,0-.02,0-.03,0Z"/>
        <path class="cls-25" d="M37.33,28.51c0-.06.05-.06.09-.06-.02.04-.05.07-.09.06Z"/>
        <path class="cls-25" d="M37.43,28.45s.02-.02.03-.03c-.01.01-.02.02-.03.03Z"/>
      </g>
      <ellipse class="cls-27" cx="33.5" cy="33.25" rx="32" ry="31.75"/>
    </g>
  </g>
  <g id="Layer_3" data-name="Layer 3">
    <path class="cls-9" d="M49,56.65v-4.65h-1.72c-.88-.61-2.02-1-3.28-1-2.76,0-5,1.79-5,4,0,.19.04.38.07.56-1.65-.36-3.55-.56-5.57-.56s-4.03.22-5.71.6c-.68-1.49-3.01-2.6-5.79-2.6-3.31,0-6,1.57-6,3.5,0,1.04.78,1.97,2.02,2.61.09,1.6,2.06,2.89,4.48,2.89.43,0,.84-.05,1.24-.13,2.03,1.28,5.64,2.13,9.76,2.13,5.03,0,9.29-1.27,10.85-3.03.23-.03.45-.09.65-.18v.21h3v-.15c1.16-.34,2-1.26,2-2.35,0-.74-.39-1.39-1-1.85Z"/>
    <text class="cls-26" transform="translate(20.81 59.65)"><tspan x="0" y="0">Power Supply</tspan></text>
  </g>
</svg>