<?xml version="1.0" encoding="UTF-8"?>
<svg id="Layer_1" data-name="Layer 1" xmlns="http://www.w3.org/2000/svg" version="1.1" viewBox="0 0 66 66">
  <defs>
    <style>
      .cls-1 {
        fill-rule: evenodd;
      }

      .cls-1, .cls-2 {
        fill: #fff;
      }

      .cls-1, .cls-3, .cls-4, .cls-5 {
        stroke-width: 0px;
      }

      .cls-6 {
        fill: #f07888;
        stroke: #3117ff;
        stroke-miterlimit: 10;
      }

      .cls-2 {
        font-family: AgencyFB-Reg, 'Agency FB';
        font-size: 6px;
      }

      .cls-3 {
        fill: #00abdb;
      }

      .cls-4 {
        fill: #0d4a8a;
      }

      .cls-5 {
        fill: #144282;
      }
    </style>
  </defs>
  <circle class="cls-6" cx="33" cy="33.08" r="32"/>
  <path class="cls-5" d="M11.62,38.37c-4.87,2.1-4.42,3.39-1.05,4.5,10.93,3.6,34.27,3.6,45.21,0,3.37-1.11,3.82-2.4-1.05-4.5,8.04,1.64,7.99,4.28,1.54,6.1-11.94,3.38-34.25,3.38-46.19,0-6.45-1.82-6.5-4.46,1.54-6.1"/>
  <path class="cls-3" d="M22.63,38.6c-2.05.28-12.67.84-8.11,4.03-2.87-.42-6.28-1.97-1.38-3.61,2.44-.82,5.14-1.19,7.39-1.4.14.17,2.1.98,2.1.98"/>
  <path class="cls-4" d="M21.18,42.85c-1.06.09-2.64-.44-2.73-1.16-.15-1.23,3.43-1.84,4.53-1.98,0,0,.98.32,1.8.51-1.98.22-7.32,1.4-3.59,2.63"/>
  <path class="cls-3" d="M40.87,26.86c-1.98-5.23-4.78-10.03-7.66-14.86-.16.11-.24.14-.27.19-2.82,4.6-5.51,9.26-7.55,14.27-1.04,2.56-1.35,5.2-.84,7.92.75,4.04,4.02,7.02,7.96,7.22,4.16.21,7.7-2.34,8.83-6.4.78-2.83.57-5.61-.46-8.35M40.22,34.55c-.25,1.37-.71,2.67-1.7,3.72-.32.34-.65.65-1.09.83-.51.2-1.09.4-1.46-.12-.33-.48.15-.88.46-1.17,2.74-2.5,3.4-5.68,3.07-9.2,0-.14,0-.28,0-.42,1.15,2.03,1.12,4.19.72,6.37Z"/>
  <path class="cls-4" d="M24.47,38.23c-.64-.7-1.22-1.46-1.92-2.09-1.56-1.42-3.32-2.4-5.53-2.33-.82.02-1.51-.24-1.59-1.19-.06-.72.69-1.33,1.61-1.36.35,0,.72.04,1.05.15,3.34,1.13,5.27,3.59,6.37,6.82"/>
  <path class="cls-1" d="M19.47,32.39c-.46-.25-.96-.46-1.49-.64-.29-.1-.61-.14-.92-.13-.47.01-1.13.26-1.25.77-.01.06-.02.12-.01.19,0,.05,0,.09.02.13.37-.48,1.11-.72,1.66-.73.46-.01.95.05,1.38.2.2.07.41.14.6.22"/>
  <path class="cls-3" d="M43.72,38.6c2.05.28,12.67.84,8.11,4.03,2.87-.42,6.28-1.97,1.38-3.61-2.44-.82-5.14-1.19-7.39-1.4-.14.17-2.1.98-2.1.98"/>
  <path class="cls-4" d="M45.17,42.85c1.06.09,2.64-.44,2.73-1.16.15-1.23-3.43-1.84-4.53-1.98,0,0-.98.32-1.8.51,1.98.22,7.32,1.4,3.59,2.63"/>
  <path class="cls-4" d="M41.88,38.23c.64-.7,1.22-1.46,1.92-2.09,1.56-1.42,3.32-2.4,5.53-2.33.82.02,1.51-.24,1.59-1.19.06-.72-.69-1.33-1.61-1.36-.35,0-.72.04-1.05.15-3.34,1.13-5.27,3.59-6.37,6.82"/>
  <path class="cls-1" d="M46.88,32.39c.46-.25.96-.46,1.49-.64.29-.1.61-.14.92-.13.47.01,1.13.26,1.25.77.01.06.02.12.01.19,0,.05,0,.09-.02.13-.37-.48-1.11-.72-1.66-.73-.46-.01-.95.05-1.38.2-.2.07-.41.14-.6.22"/>
  <text class="cls-2" transform="translate(20.54 58.51)"><tspan x="0" y="0">Water Supply</tspan></text>
</svg>