<?xml version="1.0" encoding="UTF-8"?>
<svg id="Layer_1" data-name="Layer 1" xmlns="http://www.w3.org/2000/svg" version="1.1" viewBox="0 0 66 66">
  <defs>
    <style>
      .cls-1 {
        fill: #fff;
        fill-rule: evenodd;
      }

      .cls-1, .cls-2, .cls-3, .cls-4 {
        stroke-width: 0px;
      }

      .cls-5 {
        fill: #ff69b4;
        stroke: #3117ff;
        stroke-miterlimit: 10;
      }

      .cls-2 {
        fill: #00abdb;
      }

      .cls-3 {
        fill: #0d4a8a;
      }

      .cls-4 {
        fill: #144282;
      }
    </style>
  </defs>
  <circle class="cls-5" cx="33" cy="33.1" r="32"/>
  <path class="cls-4" d="M11.6,38.4c-4.9,2.1-4.4,3.4-1.1,4.5,10.9,3.6,34.3,3.6,45.2,0,3.4-1.1,3.8-2.4-1-4.5,8,1.6,8,4.3,1.5,6.1-11.9,3.4-34.2,3.4-46.2,0-6.4-1.8-6.5-4.5,1.5-6.1"/>
  <path class="cls-2" d="M22.6,38.6c-2,.3-12.7.8-8.1,4-2.9-.4-6.3-2-1.4-3.6,2.4-.8,5.1-1.2,7.4-1.4.1.2,2.1,1,2.1,1"/>
  <path class="cls-3" d="M21.2,42.8c-1.1,0-2.6-.4-2.7-1.2-.1-1.2,3.4-1.8,4.5-2,0,0,1,.3,1.8.5-2,.2-7.3,1.4-3.6,2.6"/>
  <path class="cls-2" d="M40.9,26.9c-2-5.2-4.8-10-7.7-14.9-.2.1-.2.1-.3.2-2.8,4.6-5.5,9.3-7.5,14.3-1,2.6-1.4,5.2-.8,7.9.8,4,4,7,8,7.2,4.2.2,7.7-2.3,8.8-6.4.8-2.8.6-5.6-.5-8.4M40.2,34.5c-.2,1.4-.7,2.7-1.7,3.7-.3.3-.7.7-1.1.8-.5.2-1.1.4-1.5-.1-.3-.5.2-.9.5-1.2,2.7-2.5,3.4-5.7,3.1-9.2v-.4c1.2,2,1.1,4.2.7,6.4h0Z"/>
  <path class="cls-3" d="M24.5,38.2c-.6-.7-1.2-1.5-1.9-2.1-1.6-1.4-3.3-2.4-5.5-2.3-.8,0-1.5-.2-1.6-1.2,0-.7.7-1.3,1.6-1.4.4,0,.7,0,1,.1,3.3,1.1,5.3,3.6,6.4,6.8"/>
  <path class="cls-1" d="M19.5,32.4c-.5-.2-1-.5-1.5-.6-.3-.1-.6-.1-.9-.1-.5,0-1.1.3-1.2.8,0,0,0,.1,0,.2,0,0,0,0,0,.1.4-.5,1.1-.7,1.7-.7.5,0,1,0,1.4.2.2,0,.4.1.6.2"/>
  <path class="cls-2" d="M43.7,38.6c2,.3,12.7.8,8.1,4,2.9-.4,6.3-2,1.4-3.6-2.4-.8-5.1-1.2-7.4-1.4-.1.2-2.1,1-2.1,1"/>
  <path class="cls-3" d="M45.2,42.8c1.1,0,2.6-.4,2.7-1.2.2-1.2-3.4-1.8-4.5-2,0,0-1,.3-1.8.5,2,.2,7.3,1.4,3.6,2.6"/>
  <path class="cls-3" d="M41.9,38.2c.6-.7,1.2-1.5,1.9-2.1,1.6-1.4,3.3-2.4,5.5-2.3.8,0,1.5-.2,1.6-1.2,0-.7-.7-1.3-1.6-1.4-.3,0-.7,0-1,.1-3.3,1.1-5.3,3.6-6.4,6.8"/>
  <path class="cls-1" d="M46.9,32.4c.5-.2,1-.5,1.5-.6.3-.1.6-.1.9-.1.5,0,1.1.3,1.2.8,0,0,0,.1,0,.2,0,0,0,0,0,.1-.4-.5-1.1-.7-1.7-.7-.5,0-1,0-1.4.2-.2,0-.4.1-.6.2"/>
</svg>